<?xml version="1.0" standalone="no"?>
  <!DOCTYPE svg PUBLIC "-//W3C//DTD SVG 1.1//EN" "http://www.w3.org/Graphics/SVG/1.1/DTD/svg11.dtd" >
  <svg>
  <metadata>
  Created by font-carrier
  </metadata>
  <defs>
  <font id="Overpass-ExtraLight" horiz-adv-x="1277" vert-adv-y="1277" >
    <font-face
      
      font-family="Overpass"
      
      font-weight="400"
      
      font-stretch="normal"
      
      units-per-em="1000"
      
      ascent="982"
      
      descent="-284"
      
    />
      <missing-glyph />

      

      
      <glyph glyph-name="unif0" unicode="&#xf0;" d="M328 639Q406 579 441.50 485Q477 391 477 267Q477 130 423.50 59Q370-12 274-12Q228-12 191 5.50Q154 23 127.50 54Q101 85 87 128Q73 171 73 221Q73 274 88 317.50Q103 361 130 391.50Q157 422 194 439Q231 456 274 456Q307 456 334.50 446.50Q362 437 382.50 420.50Q403 404 417 382Q431 360 438 335Q430 426 396 497.50Q362 569 305 613L233 537L211 559L277 631Q220 667 147 677L147 712Q235 697 302 657L367 727L390 705L328 639M274 420Q239 420 209.50 405Q180 390 158 364Q136 338 124 301Q112 264 112 221Q112 179 123 143Q134 107 155 80.50Q176 54 206 39Q236 24 274 24Q312 24 342 39Q372 54 393 80.50Q414 107 425 142.50Q436 178 436 220Q436 262 424.50 298.50Q413 335 391.50 362Q370 389 340 404.50Q310 420 274 420Z"  horiz-adv-x="550" vert-adv-y="1000"  />

      
      <glyph glyph-name="uni0141" unicode="&#x0141;" d="M115 0L115 299L40 241L40 281L115 339L115 700L151 700L151 367L279 466L279 426L151 326L151 33L498 33L498 0L115 0Z"  horiz-adv-x="541" vert-adv-y="1000"  />

      
      <glyph glyph-name="uni0142" unicode="&#x0142;" d="M103 0L103 293L33 239L33 278L103 332L103 704L139 722L139 359L220 421L220 382L139 320L139 0L103 0Z"  horiz-adv-x="253" vert-adv-y="1000"  />

      
      <glyph glyph-name="uni0160" unicode="&#x0160;" d="M439 586Q421 630 384 653.50Q347 677 290 677Q220 677 181 645Q142 613 142 557Q142 523 157 498.50Q172 474 196 455Q220 436 251 421.50Q282 407 314 394Q347 380 381 362Q415 344 442.50 318Q470 292 487.50 256.50Q505 221 505 173Q505 129 490 94.50Q475 60 448 36.50Q421 13 383.50 0.50Q346-12 301-12Q261-12 226 0Q191 12 163 32Q135 52 114 78.50Q93 105 81 135L119 147Q144 91 191.50 57Q239 23 302 23Q377 23 422 61Q467 99 467 174Q467 210 453 238.50Q439 267 415.50 289.50Q392 312 361.50 329Q331 346 298 359Q263 373 228.50 389.50Q194 406 166 429.50Q138 453 121 484Q104 515 104 559Q104 592 116.50 620Q129 648 153 668.50Q177 689 212 700.50Q247 712 293 712Q326 712 355 704Q384 696 408 681Q432 666 449 644.50Q466 623 475 597L439 586M310 766L278 766L127 922L164 922L294 802L424 922L461 922L310 766Z"  horiz-adv-x="600" vert-adv-y="1000"  />

      
      <glyph glyph-name="uni0161" unicode="&#x0161;" d="M348 437Q327 457 297.50 473Q268 489 227 489Q173 489 144 464Q115 439 115 397Q115 372 125 355Q135 338 152.50 325Q170 312 192.50 302Q215 292 240 282Q273 269 301 255.50Q329 242 349.50 224Q370 206 382 181Q394 156 394 120Q394 61 355 24.50Q316-12 241-12Q188-12 148 10.50Q108 33 80 65L108 89Q131 63 164.50 42.50Q198 22 240 22Q294 22 325.50 46Q357 70 357 120Q357 147 345 167Q333 187 313.50 203Q294 219 269 231Q244 243 217 253Q154 276 116 308Q78 340 78 397Q78 451 117.50 487Q157 523 228 523Q271 523 309.50 506Q348 489 375 460L348 437M245 576L213 576L62 732L99 732L229 612L359 732L396 732L245 576Z"  horiz-adv-x="467" vert-adv-y="1000"  />

      
      <glyph glyph-name="unidd" unicode="&#xdd;" d="M287 0L287 277L59 700L98 700L305 314L512 700L551 700L323 277L323 0L287 0M268 766L231 766L382 922L437 922L268 766Z"  horiz-adv-x="610" vert-adv-y="1000"  />

      
      <glyph glyph-name="unifd" unicode="&#xfd;" d="M237 12L53 511L89 511L255 59L421 511L457 511L197-194L161-194L237 12M185 576L148 576L299 732L354 732L185 576Z"  horiz-adv-x="515" vert-adv-y="1000"  />

      
      <glyph glyph-name="unide" unicode="&#xde;" d="M115 0L115 700L151 700L151 561L333 561Q396 561 438 543.50Q480 526 506 497Q532 468 543 431Q554 394 554 355Q554 320 542 283.50Q530 247 504 217.50Q478 188 436 169Q394 150 333 150L151 150L151 0L115 0M334 186Q384 186 418.50 201.50Q453 217 474.50 241.50Q496 266 505.50 296Q515 326 515 355Q515 386 506 416.50Q497 447 476 471Q455 495 420.50 510Q386 525 334 525L151 525L151 186L334 186Z"  horiz-adv-x="609" vert-adv-y="1000"  />

      
      <glyph glyph-name="unife" unicode="&#xfe;" d="M293-12Q245-12 205.50 13.50Q166 39 144 84L144-185L108-203L108 704L144 722L144 437Q197 523 301 523Q346 523 382 504Q418 485 443 450Q468 415 481.50 365.50Q495 316 495 256Q495 125 439.50 56.50Q384-12 293-12M293 24Q371 24 413.50 84Q456 144 456 256Q456 308 445 351Q434 394 413 424Q392 454 361.50 470.50Q331 487 293 487Q246 487 206.50 460.50Q167 434 144 389L144 134Q169 83 207.50 53.50Q246 24 293 24Z"  horiz-adv-x="568" vert-adv-y="1000"  />

      
      <glyph glyph-name="uni017D" unicode="&#x017D;" d="M72 0L72 19L485 667L95 667L95 700L533 700L533 679L124 33L533 33L533 0L72 0M348 766L316 766L165 922L202 922L332 802L462 922L499 922L348 766Z"  horiz-adv-x="605" vert-adv-y="1000"  />

      
      <glyph glyph-name="uni017E" unicode="&#x017E;" d="M73 0L73 22L379 478L93 478L93 511L427 511L427 490L120 33L426 33L426 0L73 0M264 576L232 576L81 732L118 732L248 612L378 732L415 732L264 576Z"  horiz-adv-x="505" vert-adv-y="1000"  />

      
      <glyph glyph-name="unibd" unicode="&#xbd;" d="M30-12L508 712L551 712L73-12L30-12M97 283L97 617L41 617L41 639Q79 641 92.50 657Q106 673 111 705L135 705L135 283L97 283M405 331Q416 371 449 400Q482 429 535 429Q591 429 626 397Q661 365 661 308Q661 253 634.50 220.50Q608 188 555 157Q504 128 480 100.50Q456 73 448 40L659 40L659 0L405 0Q405 37 416.50 65.50Q428 94 446 116.50Q464 139 488 156.50Q512 174 538 190Q580 215 601.50 240.50Q623 266 623 308Q623 323 618 338Q613 353 602.50 365Q592 377 575 385Q558 393 535 393Q492 393 470 372Q448 351 438 318L405 331Z"  horiz-adv-x="729" vert-adv-y="1000"  />

      
      <glyph glyph-name="unibc" unicode="&#xbc;" d="M30-12L508 712L551 712L73-12L30-12M97 283L97 617L41 617L41 639Q79 641 92.50 657Q106 673 111 705L135 705L135 283L97 283M527 0L527 117L315 117L315 137L534 423L565 423L565 153L621 153L621 117L565 117L565 0L527 0M527 153L527 360L368 153L527 153Z"  horiz-adv-x="680" vert-adv-y="1000"  />

      
      <glyph glyph-name="unib9" unicode="&#xb9;" d="M87 444L87 778L31 778L31 800Q69 802 82.50 818Q96 834 101 866L125 866L125 444L87 444Z"  horiz-adv-x="206" vert-adv-y="1000"  />

      
      <glyph glyph-name="unibe" unicode="&#xbe;" d="M173-12L651 712L694 712L216-12L173-12M79 377Q95 344 119 325.50Q143 307 185 307Q228 307 255.50 329Q283 351 283 392Q283 430 260.50 455.50Q238 481 195 481L164 481L164 517L185 517Q222 517 244 542.50Q266 568 266 600Q266 632 246.50 654Q227 676 187 676Q152 676 129.50 658.50Q107 641 93 612L59 626Q76 666 109 689Q142 712 187 712Q238 712 271 683Q304 654 304 600Q304 570 288 542Q272 514 241 502Q277 494 299 465.50Q321 437 321 392Q321 364 310 341.50Q299 319 280.50 303.50Q262 288 237.50 279.50Q213 271 185 271Q131 271 97 296.50Q63 322 44 364L79 377M670 0L670 117L458 117L458 137L677 423L708 423L708 153L764 153L764 117L708 117L708 0L670 0M670 153L670 360L511 153L670 153Z"  horiz-adv-x="824" vert-adv-y="1000"  />

      
      <glyph glyph-name="unib3" unicode="&#xb3;" d="M77 539Q93 506 117 487.50Q141 469 183 469Q226 469 253.50 491Q281 513 281 554Q281 592 258.50 617.50Q236 643 193 643L162 643L162 679L183 679Q220 679 242 704.50Q264 730 264 762Q264 794 244.50 816Q225 838 185 838Q150 838 127.50 820.50Q105 803 91 774L57 788Q74 828 107 851Q140 874 185 874Q236 874 269 845Q302 816 302 762Q302 732 286 704Q270 676 239 664Q275 656 297 627.50Q319 599 319 554Q319 526 308 503.50Q297 481 278.50 465.50Q260 450 235.50 441.50Q211 433 183 433Q129 433 95 458.50Q61 484 42 526L77 539Z"  horiz-adv-x="373" vert-adv-y="1000"  />

      
      <glyph glyph-name="unib2" unicode="&#xb2;" d="M52 775Q63 815 96 844Q129 873 182 873Q238 873 273 841Q308 809 308 752Q308 697 281.50 664.50Q255 632 202 601Q151 572 127 545Q103 518 95 485L306 485L306 444L52 444Q52 481 63.50 509.50Q75 538 93 560.50Q111 583 135 600.50Q159 618 185 634Q227 659 248.50 684.50Q270 710 270 752Q270 767 265 782Q260 797 249.50 809Q239 821 222 829Q205 837 182 837Q139 837 117 816Q95 795 85 762L52 775Z"  horiz-adv-x="376" vert-adv-y="1000"  />

      
      <glyph glyph-name="unia6" unicode="&#xa6;" d="M120 393L120 720L156 720L156 393L120 393M120-120L120 205L156 205L156-120L120-120Z"  horiz-adv-x="276" vert-adv-y="1000"  />

      
      <glyph glyph-name="uni2212" unicode="&#x2212;" d="M98 324L98 360L568 360L568 324L98 324Z"  horiz-adv-x="666" vert-adv-y="1000"  />

      
      <glyph glyph-name="unid7" unicode="&#xd7;" d="M333 316L144 127L119 151L309 341L119 531L144 555L333 366L522 555L547 531L357 341L547 151L522 127L333 316Z"  horiz-adv-x="666" vert-adv-y="1000"  />

      
      <glyph glyph-name="uni21" unicode="&#x21;" d="M133 193L119 460L119 712L157 712L157 460L143 193L133 193M138-14Q126-14 117.50-5.50Q109 3 109 15Q109 28 117.50 37Q126 46 138 46Q151 46 159 37Q167 28 167 15Q167 3 159-5.50Q151-14 138-14Z"  horiz-adv-x="276" vert-adv-y="1000"  />

      
      <glyph glyph-name="uni22" unicode="&#x22;" d="M83 700L121 700L121 433L83 433L83 700M251 700L289 700L289 433L251 433L251 700Z"  horiz-adv-x="372" vert-adv-y="1000"  />

      
      <glyph glyph-name="uni23" unicode="&#x23;" d="M157 0L192 218L71 218L77 254L197 254L230 457L109 457L115 493L235 493L268 700L306 700L273 493L460 493L493 700L535 700L502 493L620 493L615 457L497 457L464 254L583 254L577 218L459 218L425 0L383 0L417 218L230 218L196 0L157 0M235 254L422 254L455 457L268 457L235 254Z"  horiz-adv-x="691" vert-adv-y="1000"  />

      
      <glyph glyph-name="uni24" unicode="&#x24;" d="M439 585Q421 629 384 653Q347 677 290 677Q220 677 181 645Q142 613 142 557Q142 523 157 498.50Q172 474 196 455Q220 436 251 421.50Q282 407 314 394Q347 380 381 362Q415 344 442.50 318Q470 292 487.50 256.50Q505 221 505 173Q505 131 491 97.50Q477 64 452 40.50Q427 17 392.50 4Q358-9 316-11L316-98L280-98L280-11Q244-8 212.50 5Q181 18 155.50 37.50Q130 57 111.50 82Q93 107 81 135L119 148Q144 92 191.50 57.50Q239 23 302 23Q377 23 422 61Q467 99 467 174Q467 210 453 238.50Q439 267 415.50 289.50Q392 312 361.50 329Q331 346 298 359Q263 373 228.50 389.50Q194 406 166 429.50Q138 453 121 484Q104 515 104 559Q104 622 149 665Q194 708 280 712L280 789L316 789L316 710Q373 705 416 675Q459 645 475 597L439 585Z"  horiz-adv-x="598" vert-adv-y="1000"  />

      
      <glyph glyph-name="uni25" unicode="&#x25;" d="M225 356Q183 356 154 372Q125 388 107 413.50Q89 439 81 470.50Q73 502 73 534Q73 563 80.50 594.50Q88 626 106 652Q124 678 153 695Q182 712 225 712Q268 712 297 695Q326 678 344 652Q362 626 369.50 594.50Q377 563 377 534Q377 502 369 470.50Q361 439 343 413.50Q325 388 296 372Q267 356 225 356M225 392Q256 392 278 404.50Q300 417 313.50 437.50Q327 458 333 483Q339 508 339 534Q339 557 333 582Q327 607 313.50 628Q300 649 278.50 662.50Q257 676 225 676Q193 676 171.50 662.50Q150 649 136.50 628Q123 607 117 582Q111 557 111 534Q111 508 117 483Q123 458 136.50 437.50Q150 417 172 404.50Q194 392 225 392M230-12L187-12L665 712L708 712L230-12M670-12Q628-12 599 4Q570 20 552 45.50Q534 71 526 102.50Q518 134 518 166Q518 195 525.50 226.50Q533 258 551 284Q569 310 598 327Q627 344 670 344Q713 344 742 327Q771 310 789 284Q807 258 814.50 226.50Q822 195 822 166Q822 134 814 102.50Q806 71 788 45.50Q770 20 741 4Q712-12 670-12M670 24Q701 24 723 36.50Q745 49 758.50 69.50Q772 90 778 115Q784 140 784 166Q784 189 778 214Q772 239 758.50 260Q745 281 723.50 294.50Q702 308 670 308Q638 308 616.50 294.50Q595 281 581.50 260Q568 239 562 214Q556 189 556 166Q556 140 562 115Q568 90 581.50 69.50Q595 49 617 36.50Q639 24 670 24Z"  horiz-adv-x="895" vert-adv-y="1000"  />

      
      <glyph glyph-name="uni26" unicode="&#x26;" d="M566 0L476 107Q437 56 380.50 22Q324-12 251-12Q209-12 174.50 0.50Q140 13 115 37Q90 61 76.50 95Q63 129 63 171Q63 208 76.50 239Q90 270 113.50 296.50Q137 323 169 346.50Q201 370 238 391Q212 423 193.50 448.50Q175 474 164 495Q153 516 148 535Q143 554 143 572Q143 605 155 631Q167 657 187 675Q207 693 234.50 702.50Q262 712 294 712Q325 712 351.50 701.50Q378 691 397 672Q416 653 427 627Q438 601 438 570Q438 514 401.50 469.50Q365 425 293 383L473 170Q493 205 505 243.50Q517 282 522 319L560 319Q556 277 541 230.50Q526 184 499 140L618 0L566 0M251 24Q317 24 367 55.50Q417 87 452 136L260 364Q185 321 143 275.50Q101 230 101 171Q101 136 112.50 108.50Q124 81 144 62Q164 43 191.50 33.50Q219 24 251 24M181 572Q181 537 205 498.50Q229 460 271 409Q334 446 367 484.50Q400 523 400 564Q400 616 368 646Q336 676 290 676Q241 676 211 648Q181 620 181 572Z"  horiz-adv-x="656" vert-adv-y="1000"  />

      
      <glyph glyph-name="uni27" unicode="&#x27;" d="M83 700L121 700L121 433L83 433L83 700Z"  horiz-adv-x="204" vert-adv-y="1000"  />

      
      <glyph glyph-name="uni28" unicode="&#x28;" d="M231-130Q208-100 186-61.50Q164-23 147 27.50Q130 78 119.50 141Q109 204 109 284Q109 363 120.50 429Q132 495 150.50 547.50Q169 600 193 641Q217 682 242 712L278 712Q265 696 243 658.50Q221 621 199.50 566Q178 511 162.50 439.50Q147 368 147 284Q147 198 161.50 129Q176 60 196 7.50Q216-45 236-79.50Q256-114 267-130L231-130Z"  horiz-adv-x="346" vert-adv-y="1000"  />

      
      <glyph glyph-name="uni29" unicode="&#x29;" d="M79-130Q90-114 110-79.50Q130-45 150 7.50Q170 60 184.50 129Q199 198 199 284Q199 368 183.50 439.50Q168 511 146.50 566Q125 621 103 658.50Q81 696 68 712L104 712Q129 682 153 641Q177 600 195.50 547.50Q214 495 225.50 429Q237 363 237 284Q237 204 226.50 141Q216 78 199 27.50Q182-23 160-61.50Q138-100 115-130L79-130Z"  horiz-adv-x="346" vert-adv-y="1000"  />

      
      <glyph glyph-name="uni2a" unicode="&#x2a;" d="M318 393L267 483L216 393L156 310L125 334L185 417L258 490L159 511L63 543L76 579L173 547L260 502L247 595L247 700L287 700L287 595L274 502L361 547L458 579L471 543L375 511L276 490L349 417L409 334L378 310L318 393Z"  horiz-adv-x="534" vert-adv-y="1000"  />

      
      <glyph glyph-name="uni2b" unicode="&#x2b;" d="M351 324L351 108L313 108L313 324L98 324L98 360L313 360L313 578L351 578L351 360L568 360L568 324L351 324Z"  horiz-adv-x="666" vert-adv-y="1000"  />

      
      <glyph glyph-name="uni2c" unicode="&#x2c;" d="M77-138Q91-118 100.50-86.50Q110-55 110-27Q110-23 109.50-20Q109-17 109-14Q95-14 86-6Q77 2 77 15Q77 29 85.50 37.50Q94 46 106 46Q120 46 129.50 36Q139 26 139 0Q139-21 134-42.50Q129-64 121.50-82.50Q114-101 104.50-116.50Q95-132 86-141L77-138Z"  horiz-adv-x="212" vert-adv-y="1000"  />

      
      <glyph glyph-name="uni2d" unicode="&#x2d;" d="M93 280L93 316L316 316L316 280L93 280Z"  horiz-adv-x="409" vert-adv-y="1000"  />

      
      <glyph glyph-name="uni2e" unicode="&#x2e;" d="M106-14Q94-14 85.50-5.50Q77 3 77 15Q77 28 85.50 37Q94 46 106 46Q119 46 127 37Q135 28 135 15Q135 3 127-5.50Q119-14 106-14Z"  horiz-adv-x="212" vert-adv-y="1000"  />

      
      <glyph glyph-name="uni2f" unicode="&#x2f;" d="M17-130L410 712L450 712L57-130L17-130Z"  horiz-adv-x="492" vert-adv-y="1000"  />

      
      <glyph glyph-name="uni30" unicode="&#x30;" d="M313-12Q249-12 206.50 20Q164 52 138 103.50Q112 155 101 219.50Q90 284 90 350Q90 386 94 427.50Q98 469 107.50 509Q117 549 133.50 586Q150 623 175 651Q200 679 234 695.50Q268 712 313 712Q377 712 419.50 679.50Q462 647 488 595Q514 543 525 478.50Q536 414 536 350Q536 313 532 272Q528 231 518 190.50Q508 150 491.50 113.50Q475 77 450.50 49Q426 21 392 4.50Q358-12 313-12M313 24Q368 24 404 56Q440 88 460.50 137Q481 186 489 243Q497 300 497 350Q497 408 488 466Q479 524 457.50 570.50Q436 617 400.50 646.50Q365 676 313 676Q257 676 221.50 643.50Q186 611 165.50 562Q145 513 137 456Q129 399 129 350Q129 291 138 232.50Q147 174 168.50 127.50Q190 81 225 52.50Q260 24 313 24Z"  horiz-adv-x="626" vert-adv-y="1000"  />

      
      <glyph glyph-name="uni31" unicode="&#x31;" d="M179 0L179 582L60 582L60 606Q94 606 116 609.50Q138 613 152.50 623Q167 633 175.50 651.50Q184 670 190 700L215 700L215 0L179 0Z"  horiz-adv-x="340" vert-adv-y="1000"  />

      
      <glyph glyph-name="uni32" unicode="&#x32;" d="M88 0Q88 59 102.50 101Q117 143 142.50 175Q168 207 203.50 233Q239 259 282 287Q316 309 350 332Q384 355 411 383Q438 411 454.50 445Q471 479 471 523Q471 590 428 633Q385 676 308 676Q239 676 195.50 640Q152 604 136 546L102 562Q111 594 129 621.50Q147 649 173 669Q199 689 233 700.50Q267 712 308 712Q356 712 393 698Q430 684 456 659Q482 634 495.50 599.50Q509 565 509 523Q509 472 490.50 433Q472 394 442.50 363Q413 332 376 306.50Q339 281 301 257Q261 231 229.50 207.50Q198 184 176.50 158.50Q155 133 142.50 103Q130 73 129 36L515 36L515 0L88 0Z"  horiz-adv-x="606" vert-adv-y="1000"  />

      
      <glyph glyph-name="uni33" unicode="&#x33;" d="M289-12Q243-12 206.50 0.50Q170 13 142.50 34Q115 55 95 82Q75 109 63 139L98 152Q126 90 173 57Q220 24 289 24Q327 24 360 34Q393 44 417.50 64Q442 84 456 113.50Q470 143 470 182Q470 258 425.50 302Q381 346 298 346L260 346L260 381L283 381Q317 381 346 391.50Q375 402 396.50 422Q418 442 430 471Q442 500 442 536Q442 568 430.50 594Q419 620 398.50 638Q378 656 350.50 666Q323 676 291 676Q257 676 230 666Q203 656 182.50 640Q162 624 147.50 604.50Q133 585 124 567L90 581Q101 605 119.50 628.50Q138 652 163.50 670.50Q189 689 221 700.50Q253 712 291 712Q331 712 366 699.50Q401 687 426 663.50Q451 640 465.50 607.50Q480 575 480 536Q480 483 453 436.50Q426 390 366 367Q431 354 469.50 304Q508 254 508 182Q508 137 491.50 101.50Q475 66 445.50 40.50Q416 15 376 1.50Q336-12 289-12Z"  horiz-adv-x="596" vert-adv-y="1000"  />

      
      <glyph glyph-name="uni34" unicode="&#x34;" d="M390 0L390 204L48 204L48 225L410 700L426 700L426 237L532 237L532 204L426 204L426 0L390 0M390 237L390 620L99 237L390 237Z"  horiz-adv-x="593" vert-adv-y="1000"  />

      
      <glyph glyph-name="uni35" unicode="&#x35;" d="M304-12Q265-12 232-3Q199 6 172 19.50Q145 33 124.50 49Q104 65 91 79L115 109Q127 95 145 80.50Q163 66 186.50 53Q210 40 239.50 32Q269 24 305 24Q357 24 394.50 41Q432 58 456.50 86Q481 114 493 151Q505 188 505 227Q505 269 491 304Q477 339 452 364Q427 389 392.50 402.50Q358 416 317 416Q257 416 216 392.50Q175 369 147 337L117 345L174 700L497 700L497 664L206 664L163 396Q192 422 231 437Q270 452 318 452Q366 452 407.50 435.50Q449 419 479 389.50Q509 360 526 318.50Q543 277 543 227Q543 181 528.50 138Q514 95 484.50 61.50Q455 28 410 8Q365-12 304-12Z"  horiz-adv-x="634" vert-adv-y="1000"  />

      
      <glyph glyph-name="uni36" unicode="&#x36;" d="M292-12Q234-12 193 9.50Q152 31 126.50 65Q101 99 89.50 141.50Q78 184 78 227Q78 311 98.50 386.50Q119 462 159.50 525Q200 588 261.50 635.50Q323 683 406 712L406 675Q296 637 222.50 552Q149 467 123 335Q149 377 195 401Q241 425 292 425Q341 425 380.50 408.50Q420 392 447.50 363.50Q475 335 490 295.50Q505 256 505 210Q505 162 489.50 121.50Q474 81 446.50 51Q419 21 379.50 4.50Q340-12 292-12M292 389Q254 389 222 375.50Q190 362 167 338Q144 314 131 281Q118 248 118 210Q118 170 130.50 136Q143 102 166 77Q189 52 221 38Q253 24 292 24Q331 24 363.50 38Q396 52 419 76Q442 100 454.50 133Q467 166 467 205Q467 245 455 279Q443 313 420 337.50Q397 362 364.50 375.50Q332 389 292 389Z"  horiz-adv-x="592" vert-adv-y="1000"  />

      
      <glyph glyph-name="uni37" unicode="&#x37;" d="M182 0Q183 85 194 168.50Q205 252 231 335Q257 418 301 500Q345 582 413 664L54 664L54 700L451 700L451 669Q375 583 330 492.50Q285 402 261 315Q237 228 229.50 147.50Q222 67 221 0L182 0Z"  horiz-adv-x="505" vert-adv-y="1000"  />

      
      <glyph glyph-name="uni38" unicode="&#x38;" d="M302 24Q339 24 370.50 35.50Q402 47 425 69Q448 91 461.50 121.50Q475 152 475 191Q475 227 462.50 259.50Q450 292 427.50 316.50Q405 341 373 355Q341 369 302 369Q263 369 231 355Q199 341 176.50 316.50Q154 292 141.50 259.50Q129 227 129 191Q129 152 142 121.50Q155 91 178.50 69Q202 47 233.50 35.50Q265 24 302 24M302 712Q341 712 374 698.50Q407 685 431.50 661Q456 637 469.50 605.50Q483 574 483 538Q483 488 455 446Q427 404 368 386Q437 367 476 314.50Q515 262 515 191Q515 148 499 111Q483 74 454.50 46.50Q426 19 387 3.50Q348-12 302-12Q256-12 217 3.50Q178 19 149.50 46.50Q121 74 105 111Q89 148 89 191Q89 226 99.50 258Q110 290 128.50 315.50Q147 341 174 359Q201 377 234 386Q179 403 150 445.50Q121 488 121 538Q121 574 134.50 605.50Q148 637 172.50 661Q197 685 230 698.50Q263 712 302 712M302 401Q368 401 406.50 439Q445 477 445 538Q445 570 434 595.50Q423 621 404 639Q385 657 358.50 666.50Q332 676 302 676Q272 676 245.50 666.50Q219 657 200 639Q181 621 170 595.50Q159 570 159 538Q159 477 197.50 439Q236 401 302 401Z"  horiz-adv-x="604" vert-adv-y="1000"  />

      
      <glyph glyph-name="uni39" unicode="&#x39;" d="M292 712Q344 712 384 692Q424 672 451 639.50Q478 607 491.50 565.50Q505 524 505 480Q505 392 482 312.50Q459 233 417 168Q375 103 317 56.50Q259 10 189-12L189 24Q244 42 289.50 77.50Q335 113 369 159.50Q403 206 424.50 261Q446 316 454 374Q430 338 387 313Q344 288 278 288Q234 288 197 304Q160 320 133.50 348.50Q107 377 92 415Q77 453 77 497Q77 543 93 582Q109 621 137.50 650Q166 679 205.50 695.50Q245 712 292 712M283 324Q323 324 356.50 337.50Q390 351 414 374Q438 397 451 429Q464 461 464 497Q464 535 450.50 568Q437 601 413.50 625Q390 649 358.50 662.50Q327 676 290 676Q251 676 219 662.50Q187 649 163.50 625.50Q140 602 127.50 570Q115 538 115 502Q115 464 127 431.50Q139 399 161 375Q183 351 214 337.50Q245 324 283 324Z"  horiz-adv-x="592" vert-adv-y="1000"  />

      
      <glyph glyph-name="uni3a" unicode="&#x3a;" d="M106-14Q94-14 85.50-5.50Q77 3 77 15Q77 28 85.50 37Q94 46 106 46Q119 46 127 37Q135 28 135 15Q135 3 127-5.50Q119-14 106-14M106 423Q94 423 85.50 431.50Q77 440 77 452Q77 465 85.50 474Q94 483 106 483Q119 483 127 474Q135 465 135 452Q135 440 127 431.50Q119 423 106 423Z"  horiz-adv-x="212" vert-adv-y="1000"  />

      
      <glyph glyph-name="uni3b" unicode="&#x3b;" d="M106 423Q94 423 85.50 431.50Q77 440 77 452Q77 465 85.50 474Q94 483 106 483Q119 483 127 474Q135 465 135 452Q135 440 127 431.50Q119 423 106 423M77-138Q91-118 100.50-86.50Q110-55 110-27Q110-23 109.50-20Q109-17 109-14Q95-14 86-6Q77 2 77 15Q77 29 85.50 37.50Q94 46 106 46Q120 46 129.50 36Q139 26 139 0Q139-21 134-42.50Q129-64 121.50-82.50Q114-101 104.50-116.50Q95-132 86-141L77-138Z"  horiz-adv-x="212" vert-adv-y="1000"  />

      
      <glyph glyph-name="uni3c" unicode="&#x3c;" d="M568 120L98 324L98 362L568 566L568 525L145 343L568 161L568 120Z"  horiz-adv-x="666" vert-adv-y="1000"  />

      
      <glyph glyph-name="uni3d" unicode="&#x3d;" d="M98 229L98 265L568 265L568 229L98 229M98 419L98 455L568 455L568 419L98 419Z"  horiz-adv-x="666" vert-adv-y="1000"  />

      
      <glyph glyph-name="uni3e" unicode="&#x3e;" d="M568 324L98 120L98 161L521 343L98 525L98 566L568 362L568 324Z"  horiz-adv-x="666" vert-adv-y="1000"  />

      
      <glyph glyph-name="uni3f" unicode="&#x3f;" d="M236 156L236 190Q236 234 250 266.50Q264 299 285 325Q306 351 330 373Q354 395 375 418Q396 441 410 468Q424 495 424 532Q424 562 414 588Q404 614 384 633.50Q364 653 335 664.50Q306 676 268 676Q139 676 102 555L68 570Q90 639 142.50 675.50Q195 712 268 712Q315 712 351 698Q387 684 412 659.50Q437 635 449.50 602Q462 569 462 532Q462 491 448 461.50Q434 432 413 407.50Q392 383 368 361.50Q344 340 323 315.50Q302 291 288 261Q274 231 274 190L274 156L236 156M255-14Q243-14 234.50-5.50Q226 3 226 15Q226 28 234.50 37Q243 46 255 46Q268 46 276 37Q284 28 284 15Q284 3 276-5.50Q268-14 255-14Z"  horiz-adv-x="532" vert-adv-y="1000"  />

      
      <glyph glyph-name="uni40" unicode="&#x40;" d="M402-12Q333-12 272 11Q211 34 165.50 78.50Q120 123 93.50 187Q67 251 67 334Q67 417 95.50 486.50Q124 556 173 606Q222 656 286 684Q350 712 421 712Q491 712 549.50 691Q608 670 650 631.50Q692 593 715 539Q738 485 738 419Q738 362 726 314.50Q714 267 693.50 232.50Q673 198 645 179Q617 160 586 160Q554 160 532 178.50Q510 197 506 234Q492 208 475.50 192Q459 176 441 167Q423 158 406 154.50Q389 151 374 151Q309 151 270 195Q231 239 231 320Q231 358 243 395.50Q255 433 278 462.50Q301 492 333.50 510.50Q366 529 407 529Q434 529 454.50 520.50Q475 512 490.50 498Q506 484 515.50 466.50Q525 449 530 430L545 516L580 516L545 311Q542 295 540.50 278.50Q539 262 539 251Q539 222 551.50 206.50Q564 191 586 191Q610 191 631 208Q652 225 667 255Q682 285 691 327Q700 369 700 419Q700 476 679.50 523.50Q659 571 622 604.50Q585 638 533.50 657Q482 676 421 676Q356 676 298.50 650.50Q241 625 198 579Q155 533 130 470.50Q105 408 105 333Q105 268 125.50 211.50Q146 155 184.50 113.50Q223 72 279 48Q335 24 406 24Q436 24 469 27Q502 30 530 37L522 1Q496-6 465.50-9Q435-12 402-12M411 494Q376 494 349.50 480Q323 466 305 442Q287 418 278 386Q269 354 269 319Q269 257 299 221.50Q329 186 378 186Q409 186 434.50 200Q460 214 478 238Q496 262 506 293.50Q516 325 516 361Q516 391 507.50 416Q499 441 484.50 458Q470 475 451 484.50Q432 494 411 494Z"  horiz-adv-x="805" vert-adv-y="1000"  />

      
      <glyph glyph-name="uni41" unicode="&#x41;" d="M552 0L482 197L185 197L118 0L81 0L321 700L345 700L587 0L552 0M473 227L369 529Q367 535 362.50 549Q358 563 352.50 579.50Q347 596 342 612.50Q337 629 334 640Q331 629 326 612Q321 595 315 578Q309 561 304 547.50Q299 534 298 529L194 227L473 227Z"  horiz-adv-x="668" vert-adv-y="1000"  />

      
      <glyph glyph-name="uni42" unicode="&#x42;" d="M115 700L330 700Q387 700 425 685Q463 670 486 645.50Q509 621 518.50 590Q528 559 528 526Q528 468 492.50 423.50Q457 379 393 365Q428 362 457.50 348Q487 334 508 311Q529 288 541 257Q553 226 553 188Q553 154 543 120.50Q533 87 509 60Q485 33 445.50 16.50Q406 0 346 0L115 0L115 700M355 32Q402 32 433.50 44.50Q465 57 483.50 78Q502 99 509.50 126Q517 153 517 181Q517 214 508.50 244Q500 274 478 297Q456 320 418.50 333.50Q381 347 323 347L151 347L151 32L355 32M311 379Q401 379 446.50 419.50Q492 460 492 528Q492 553 485.50 578.50Q479 604 461 623.50Q443 643 412 655.50Q381 668 333 668L151 668L151 379L311 379Z"  horiz-adv-x="642" vert-adv-y="1000"  />

      
      <glyph glyph-name="uni43" unicode="&#x43;" d="M361-12Q288-12 236.50 19Q185 50 152.50 100.50Q120 151 105 216Q90 281 90 350Q90 420 106.50 485Q123 550 156 600.50Q189 651 240 681.50Q291 712 360 712Q404 712 436.50 702.50Q469 693 492 677Q515 661 531.50 640.50Q548 620 560 599L529 581Q518 599 504.50 616Q491 633 471.50 646.50Q452 660 424.50 668Q397 676 360 676Q301 676 257.50 648.50Q214 621 185.50 576Q157 531 143 472Q129 413 129 350Q129 288 141.50 229Q154 170 182 124.50Q210 79 254 51.50Q298 24 361 24Q396 24 424.50 33Q453 42 474.50 56.50Q496 71 511.50 90Q527 109 537 129L570 116Q559 92 540.50 69Q522 46 496.50 28Q471 10 437-1Q403-12 361-12Z"  horiz-adv-x="650" vert-adv-y="1000"  />

      
      <glyph glyph-name="uni44" unicode="&#x44;" d="M115 700L275 700Q362 700 421.50 669.50Q481 639 517 589.50Q553 540 569 477.50Q585 415 585 350Q585 290 570.50 227.50Q556 165 520 114.50Q484 64 423.50 32Q363 0 271 0L115 0L115 700M271 36Q352 36 405 65Q458 94 489.50 139Q521 184 533.50 240Q546 296 546 350Q546 408 532 464.50Q518 521 486.50 565Q455 609 403 636.50Q351 664 275 664L151 664L151 36L271 36Z"  horiz-adv-x="675" vert-adv-y="1000"  />

      
      <glyph glyph-name="uni45" unicode="&#x45;" d="M115 0L115 700L480 700L480 667L151 667L151 379L373 379L373 346L151 346L151 33L502 33L502 0L115 0Z"  horiz-adv-x="592" vert-adv-y="1000"  />

      
      <glyph glyph-name="uni46" unicode="&#x46;" d="M115 0L115 700L490 700L490 667L151 667L151 379L380 379L380 346L151 346L151 0L115 0Z"  horiz-adv-x="560" vert-adv-y="1000"  />

      
      <glyph glyph-name="uni47" unicode="&#x47;" d="M363-12Q289-12 237.50 19Q186 50 153 100.50Q120 151 105 216Q90 281 90 350Q90 422 106 487.50Q122 553 155.50 603Q189 653 240.50 682.50Q292 712 363 712Q400 712 430 703.50Q460 695 483 681.50Q506 668 523.50 650.50Q541 633 554 616L522 595Q499 627 461 651.50Q423 676 363 676Q298 676 253.50 646.50Q209 617 181 570Q153 523 141 465Q129 407 129 350Q129 287 142.50 228Q156 169 184.50 123.50Q213 78 257 51Q301 24 363 24Q447 24 497 84.50Q547 145 547 269L547 281L400 281L400 315L585 315L585 281Q585 203 568.50 147.50Q552 92 522 56.50Q492 21 451.50 4.50Q411-12 363-12Z"  horiz-adv-x="691" vert-adv-y="1000"  />

      
      <glyph glyph-name="uni48" unicode="&#x48;" d="M527 0L527 347L151 347L151 0L115 0L115 700L151 700L151 381L527 381L527 700L563 700L563 0L527 0Z"  horiz-adv-x="678" vert-adv-y="1000"  />

      
      <glyph glyph-name="uni49" unicode="&#x49;" d="M115 0L115 700L151 700L151 0L115 0Z"  horiz-adv-x="266" vert-adv-y="1000"  />

      
      <glyph glyph-name="uni4a" unicode="&#x4a;" d="M225-12Q149-12 107.50 19.50Q66 51 43 107L73 123Q93 78 128 50Q163 22 225 22Q253 22 283 30.50Q313 39 338 61.50Q363 84 379 123Q395 162 395 223L395 700L431 700L431 225Q431 153 411.50 107Q392 61 362 34.50Q332 8 295.50-2Q259-12 225-12Z"  horiz-adv-x="542" vert-adv-y="1000"  />

      
      <glyph glyph-name="uni4b" unicode="&#x4b;" d="M519 0L284 431L151 264L151 0L115 0L115 700L151 700L151 317L455 700L498 700L309 462L561 0L519 0Z"  horiz-adv-x="629" vert-adv-y="1000"  />

      
      <glyph glyph-name="uni4c" unicode="&#x4c;" d="M115 0L115 700L151 700L151 33L498 33L498 0L115 0Z"  horiz-adv-x="541" vert-adv-y="1000"  />

      
      <glyph glyph-name="uni4d" unicode="&#x4d;" d="M657 0L657 596L404-12L151 596L151 0L115 0L115 700L147 700L404 81L661 700L693 700L693 0L657 0Z"  horiz-adv-x="808" vert-adv-y="1000"  />

      
      <glyph glyph-name="uni4e" unicode="&#x4e;" d="M541 0L151 631L151 0L115 0L115 700L150 700L540 69L540 700L576 700L576 0L541 0Z"  horiz-adv-x="691" vert-adv-y="1000"  />

      
      <glyph glyph-name="uni4f" unicode="&#x4f;" d="M363 24Q428 24 473 53.50Q518 83 545.50 130Q573 177 585 235Q597 293 597 350Q597 412 585 471Q573 530 545.50 575.50Q518 621 473 648.50Q428 676 363 676Q298 676 253 646.50Q208 617 180.50 570Q153 523 141 465Q129 407 129 350Q129 288 141 229Q153 170 180.50 124.50Q208 79 253 51.50Q298 24 363 24M363-12Q288-12 236 20Q184 52 151.50 104Q119 156 104.50 220.50Q90 285 90 350Q90 415 104.50 479.50Q119 544 151.50 596Q184 648 236 680Q288 712 363 712Q438 712 490 680Q542 648 574.50 596Q607 544 621.50 479.50Q636 415 636 350Q636 285 621.50 220.50Q607 156 574.50 104Q542 52 490 20Q438-12 363-12Z"  horiz-adv-x="726" vert-adv-y="1000"  />

      
      <glyph glyph-name="uni50" unicode="&#x50;" d="M115 0L115 700L334 700Q397 700 439 682Q481 664 506.50 635Q532 606 543 569Q554 532 554 494Q554 459 542.50 422.50Q531 386 504.50 356.50Q478 327 436 308Q394 289 334 289L151 289L151 0L115 0M334 325Q384 325 418.50 340.50Q453 356 474.50 380.50Q496 405 505.50 435Q515 465 515 494Q515 525 506 555.50Q497 586 476 610Q455 634 420.50 649Q386 664 334 664L151 664L151 325L334 325Z"  horiz-adv-x="609" vert-adv-y="1000"  />

      
      <glyph glyph-name="uni51" unicode="&#x51;" d="M569-57L509 33Q480 12 444 0Q408-12 363-12Q288-12 236 20Q184 52 151.50 104Q119 156 104.50 220.50Q90 285 90 350Q90 415 104.50 479.50Q119 544 151.50 596Q184 648 236 680Q288 712 363 712Q438 712 490 680Q542 648 574.50 596Q607 544 621.50 479.50Q636 415 636 350Q636 309 630.50 267.50Q625 226 612.50 187Q600 148 580.50 114Q561 80 534 54L596-38L569-57M363 24Q401 24 432 34.50Q463 45 488 64L427 155L454 174L513 86Q536 110 552 140.50Q568 171 578 205.50Q588 240 592.50 277Q597 314 597 350Q597 412 585 471Q573 530 545.50 575.50Q518 621 473 648.50Q428 676 363 676Q298 676 253 646.50Q208 617 180.50 570Q153 523 141 465Q129 407 129 350Q129 288 141 229Q153 170 180.50 124.50Q208 79 253 51.50Q298 24 363 24Z"  horiz-adv-x="726" vert-adv-y="1000"  />

      
      <glyph glyph-name="uni52" unicode="&#x52;" d="M556 517Q556 482 545.50 449.50Q535 417 512.50 391.50Q490 366 455.50 349.50Q421 333 373 329L534 0L494 0L335 329L151 329L151 0L115 0L115 700L355 700Q412 700 450.50 684Q489 668 512.50 642Q536 616 546 583.50Q556 551 556 517M355 362Q401 362 432.50 376Q464 390 483 412Q502 434 510 461.50Q518 489 518 517Q518 541 510.50 567.50Q503 594 484.50 616Q466 638 434.50 652.50Q403 667 355 667L151 667L151 362L355 362Z"  horiz-adv-x="654" vert-adv-y="1000"  />

      
      <glyph glyph-name="uni53" unicode="&#x53;" d="M439 586Q421 630 384 653.50Q347 677 290 677Q220 677 181 645Q142 613 142 557Q142 523 157 498.50Q172 474 196 455Q220 436 251 421.50Q282 407 314 394Q347 380 381 362Q415 344 442.50 318Q470 292 487.50 256.50Q505 221 505 173Q505 129 490 94.50Q475 60 448 36.50Q421 13 383.50 0.50Q346-12 301-12Q261-12 226 0Q191 12 163 32Q135 52 114 78.50Q93 105 81 135L119 147Q144 91 191.50 57Q239 23 302 23Q377 23 422 61Q467 99 467 174Q467 210 453 238.50Q439 267 415.50 289.50Q392 312 361.50 329Q331 346 298 359Q263 373 228.50 389.50Q194 406 166 429.50Q138 453 121 484Q104 515 104 559Q104 592 116.50 620Q129 648 153 668.50Q177 689 212 700.50Q247 712 293 712Q326 712 355 704Q384 696 408 681Q432 666 449 644.50Q466 623 475 597L439 586Z"  horiz-adv-x="600" vert-adv-y="1000"  />

      
      <glyph glyph-name="uni54" unicode="&#x54;" d="M301 667L301 0L265 0L265 667L73 667L73 700L494 700L494 667L301 667Z"  horiz-adv-x="567" vert-adv-y="1000"  />

      
      <glyph glyph-name="uni55" unicode="&#x55;" d="M334-12Q282-12 240.50 2.50Q199 17 170.50 48.50Q142 80 126.50 129.50Q111 179 111 249L111 700L147 700L147 251Q147 182 162.50 137.50Q178 93 203.50 67.50Q229 42 263 32Q297 22 334 22Q371 22 405 32Q439 42 464.50 67.50Q490 93 505.50 137.50Q521 182 521 251L521 700L557 700L557 249Q557 179 541.50 129.50Q526 80 497.50 48.50Q469 17 427.50 2.50Q386-12 334-12Z"  horiz-adv-x="668" vert-adv-y="1000"  />

      
      <glyph glyph-name="uni56" unicode="&#x56;" d="M335 0L307 0L68 700L107 700L321 75L535 700L574 700L335 0Z"  horiz-adv-x="642" vert-adv-y="1000"  />

      
      <glyph glyph-name="uni57" unicode="&#x57;" d="M774 700L604 0L574 0L421 612L268 0L238 0L68 700L107 700L254 90L406 700L436 700L588 90L735 700L774 700Z"  horiz-adv-x="842" vert-adv-y="1000"  />

      
      <glyph glyph-name="uni58" unicode="&#x58;" d="M458 0L278 329L98 0L58 0L259 366L75 700L115 700L278 402L441 700L481 700L297 366L498 0L458 0Z"  horiz-adv-x="556" vert-adv-y="1000"  />

      
      <glyph glyph-name="uni59" unicode="&#x59;" d="M287 0L287 277L59 700L98 700L305 314L512 700L551 700L323 277L323 0L287 0Z"  horiz-adv-x="610" vert-adv-y="1000"  />

      
      <glyph glyph-name="uni5a" unicode="&#x5a;" d="M72 0L72 19L485 667L95 667L95 700L533 700L533 679L124 33L533 33L533 0L72 0Z"  horiz-adv-x="605" vert-adv-y="1000"  />

      
      <glyph glyph-name="uni5b" unicode="&#x5b;" d="M135-130L135 712L310 712L310 678L171 678L171-96L310-96L310-130L135-130Z"  horiz-adv-x="385" vert-adv-y="1000"  />

      
      <glyph glyph-name="uni5c" unicode="&#x5c;" d="M411-130L18 712L56 712L449-130L411-130Z"  horiz-adv-x="492" vert-adv-y="1000"  />

      
      <glyph glyph-name="uni5d" unicode="&#x5d;" d="M250-130L75-130L75-96L214-96L214 678L75 678L75 712L250 712L250-130Z"  horiz-adv-x="385" vert-adv-y="1000"  />

      
      <glyph glyph-name="uni5e" unicode="&#x5e;" d="M508 362L333 663L158 362L120 362L314 712L352 712L546 362L508 362Z"  horiz-adv-x="666" vert-adv-y="1000"  />

      
      <glyph glyph-name="uni5f" unicode="&#x5f;" d="M13-155L13-122L523-122L523-155L13-155Z"  horiz-adv-x="536" vert-adv-y="1000"  />

      
      <glyph glyph-name="uni60" unicode="&#x60;" d="M207 576L38 732L93 732L244 576L207 576Z"  horiz-adv-x="341" vert-adv-y="1000"  />

      
      <glyph glyph-name="uni61" unicode="&#x61;" d="M403 0L403 80Q373 38 330.50 13Q288-12 241-12Q166-12 122 30.50Q78 73 78 154Q78 196 92 226.50Q106 257 129.50 277Q153 297 185 306.50Q217 316 253 316Q294 316 331 303Q368 290 403 267L403 343Q403 388 392.50 417Q382 446 365 462Q348 478 325 484Q302 490 278 490Q236 490 195 474.50Q154 459 124 441L113 472Q142 489 185 506Q228 523 281 523Q308 523 336 516Q364 509 387 491Q410 473 424.50 441Q439 409 439 358L439 0L403 0M241 21Q269 21 293 30Q317 39 337 53.50Q357 68 373.50 86Q390 104 403 122L403 233Q374 253 335.50 268Q297 283 253 283Q227 283 202.50 275Q178 267 159 251.50Q140 236 128.50 211.50Q117 187 117 154Q117 94 150.50 57.50Q184 21 241 21Z"  horiz-adv-x="527" vert-adv-y="1000"  />

      
      <glyph glyph-name="uni62" unicode="&#x62;" d="M303-12Q252-12 214 8Q176 28 144 73L144 0L108 0L108 704L144 722L144 436Q168 476 208.50 499.50Q249 523 297 523Q386 523 438.50 453Q491 383 491 256Q491 125 441 56.50Q391-12 303-12M300 24Q375 24 413.50 87Q452 150 452 256Q452 368 412.50 427.50Q373 487 296 487Q268 487 244 477Q220 467 200.50 451.50Q181 436 166.50 417.50Q152 399 144 383L144 129Q168 82 209 53Q250 24 300 24Z"  horiz-adv-x="564" vert-adv-y="1000"  />

      
      <glyph glyph-name="uni63" unicode="&#x63;" d="M257-12Q172-12 122.50 57.50Q73 127 73 255Q73 382 123.50 452.50Q174 523 264 523Q316 523 355 495.50Q394 468 413 416L377 402Q363 443 333 465Q303 487 264 487Q188 487 150 428Q112 369 112 255Q112 145 151.50 84.50Q191 24 257 24Q303 24 337 49.50Q371 75 384 118L420 105Q403 51 360 19.50Q317-12 257-12Z"  horiz-adv-x="483" vert-adv-y="1000"  />

      
      <glyph glyph-name="uni64" unicode="&#x64;" d="M267-12Q222-12 186 7Q150 26 125 61Q100 96 86.50 145.50Q73 195 73 256Q73 383 125.50 453Q178 523 275 523Q303 523 325.50 515Q348 507 365.50 494.50Q383 482 396.50 466.50Q410 451 420 436L420 704L456 722L456 0L420 0L420 73Q389 28 350 8Q311-12 267-12M275 24Q319 24 358 54.50Q397 85 420 129L420 384Q411 399 397.50 416.50Q384 434 366 450Q348 466 325 476.50Q302 487 275 487Q196 487 154 427Q112 367 112 256Q112 208 123.50 165.50Q135 123 156 91.50Q177 60 207 42Q237 24 275 24Z"  horiz-adv-x="564" vert-adv-y="1000"  />

      
      <glyph glyph-name="uni65" unicode="&#x65;" d="M112 245Q116 130 160 77Q204 24 281 24Q310 24 341.50 34Q373 44 401 67L422 41Q395 18 357.50 3Q320-12 278-12Q180-12 126.50 60Q73 132 73 256Q73 320 88.50 369.50Q104 419 131 453Q158 487 195.50 505Q233 523 278 523Q319 523 353 507.50Q387 492 411.50 459.50Q436 427 449.50 376.50Q463 326 463 256L463 245L112 245M278 490Q244 490 215 477.50Q186 465 164 439.50Q142 414 128.50 373.50Q115 333 112 278L425 278Q425 342 410.50 383.50Q396 425 374 448.50Q352 472 326.50 481Q301 490 278 490Z"  horiz-adv-x="531" vert-adv-y="1000"  />

      
      <glyph glyph-name="uni66" unicode="&#x66;" d="M161 478L161 0L125 0L125 478L43 478L43 511L125 511L125 603Q125 712 223 712Q239 712 255 707.50Q271 703 284 696L284 664Q270 670 256.50 674.50Q243 679 223 679Q188 679 174.50 660Q161 641 161 599L161 511L284 511L284 478L161 478Z"  horiz-adv-x="327" vert-adv-y="1000"  />

      
      <glyph glyph-name="uni67" unicode="&#x67;" d="M215-181Q328-175 375-134.50Q422-94 422-19L422 84Q398 34 357.50 11Q317-12 269-12Q230-12 194.50 5Q159 22 132 55.50Q105 89 89 139Q73 189 73 256Q73 319 87.50 368.50Q102 418 128.50 452.50Q155 487 191.50 505Q228 523 273 523Q301 523 325 515.50Q349 508 368 495.50Q387 483 400.50 467.50Q414 452 422 437L422 511L458 511L458-23Q458-78 438.50-113.50Q419-149 387.50-170Q356-191 316-200.50Q276-210 234-213L215-181M270 24Q296 24 319.50 33Q343 42 362.50 57.50Q382 73 397 93Q412 113 422 134L422 389Q396 437 356.50 462Q317 487 273 487Q195 487 153.50 427.50Q112 368 112 256Q112 200 124.50 157Q137 114 158.50 84.50Q180 55 209 39.50Q238 24 270 24Z"  horiz-adv-x="566" vert-adv-y="1000"  />

      
      <glyph glyph-name="uni68" unicode="&#x68;" d="M295 523Q376 523 417.50 471.50Q459 420 459 312L459 0L423 0L423 320Q423 366 413.50 398.50Q404 431 387 451Q370 471 346 480Q322 489 292 489Q260 489 233 479Q206 469 186.50 446.50Q167 424 155.50 387.50Q144 351 144 297L144 0L108 0L108 704L144 722L144 419Q154 447 171.50 467Q189 487 210 499.50Q231 512 253 517.50Q275 523 295 523Z"  horiz-adv-x="562" vert-adv-y="1000"  />

      
      <glyph glyph-name="uni69" unicode="&#x69;" d="M111 0L111 511L147 511L147 0L111 0M129 633Q117 633 108.50 641.50Q100 650 100 662Q100 675 108.50 684Q117 693 129 693Q142 693 150 684Q158 675 158 662Q158 650 150 641.50Q142 633 129 633Z"  horiz-adv-x="258" vert-adv-y="1000"  />

      
      <glyph glyph-name="uni6a" unicode="&#x6a;" d="M129 633Q117 633 108.50 641.50Q100 650 100 662Q100 675 108.50 684Q117 693 129 693Q142 693 150 684Q158 675 158 662Q158 650 150 641.50Q142 633 129 633M148-49Q148-96 136.50-126Q125-156 105-174.50Q85-193 59-201.50Q33-210 5-213L-13-182Q51-177 81.50-147.50Q112-118 112-51L112 511L148 511L148-49Z"  horiz-adv-x="264" vert-adv-y="1000"  />

      
      <glyph glyph-name="uni6b" unicode="&#x6b;" d="M279 371L470 0L429 0L253 343L144 227L144 0L108 0L108 704L144 722L144 272L362 511L407 511L279 371Z"  horiz-adv-x="513" vert-adv-y="1000"  />

      
      <glyph glyph-name="uni6c" unicode="&#x6c;" d="M108 0L108 704L144 722L144 0L108 0Z"  horiz-adv-x="252" vert-adv-y="1000"  />

      
      <glyph glyph-name="uni6d" unicode="&#x6d;" d="M582 523Q656 523 699 477Q742 431 742 351L742 0L706 0L706 321Q706 349 702 378.50Q698 408 684.50 432.50Q671 457 646 473Q621 489 579 489Q547 489 521.50 475.50Q496 462 478.50 439Q461 416 452 385.50Q443 355 443 321L443 0L407 0L407 321Q407 349 402.50 378.50Q398 408 385 432.50Q372 457 347 473Q322 489 282 489Q247 489 221 476Q195 463 178 439.50Q161 416 152.50 384Q144 352 144 314L144 0L108 0L108 511L144 511L144 427Q167 477 205 500Q243 523 287 523Q338 523 376.50 493.50Q415 464 428 398Q448 460 490 491.50Q532 523 582 523Z"  horiz-adv-x="845" vert-adv-y="1000"  />

      
      <glyph glyph-name="uni6e" unicode="&#x6e;" d="M144 419Q154 447 171.50 467Q189 487 209.50 499.50Q230 512 252.50 517.50Q275 523 295 523Q376 523 417.50 471.50Q459 420 459 312L459 0L423 0L423 319Q423 412 387 450.50Q351 489 292 489Q260 489 233 479Q206 469 186.50 446.50Q167 424 155.50 387.50Q144 351 144 297L144 0L108 0L108 511L144 511L144 419Z"  horiz-adv-x="562" vert-adv-y="1000"  />

      
      <glyph glyph-name="uni6f" unicode="&#x6f;" d="M275 24Q353 24 395.50 85Q438 146 438 256Q438 365 396.50 426Q355 487 275 487Q195 487 153.50 427.50Q112 368 112 255Q112 146 153.50 85Q195 24 275 24M275 523Q366 523 421.50 453.50Q477 384 477 256Q477 193 462.50 143Q448 93 421.50 58.50Q395 24 357.50 6Q320-12 275-12Q184-12 128.50 57.50Q73 127 73 255Q73 318 87.50 367.50Q102 417 128.50 451.50Q155 486 192.50 504.50Q230 523 275 523Z"  horiz-adv-x="550" vert-adv-y="1000"  />

      
      <glyph glyph-name="uni70" unicode="&#x70;" d="M293-12Q245-12 206.50 12.50Q168 37 144 84L144-185L108-203L108 511L144 511L144 437Q197 523 301 523Q346 523 382 504Q418 485 443 450Q468 415 481.50 365.50Q495 316 495 256Q495 125 439.50 56.50Q384-12 293-12M293 24Q371 24 413.50 84Q456 144 456 256Q456 308 445 351Q434 394 413 424Q392 454 361.50 470.50Q331 487 293 487Q246 487 206.50 460.50Q167 434 144 389L144 134Q169 83 207.50 53.50Q246 24 293 24Z"  horiz-adv-x="568" vert-adv-y="1000"  />

      
      <glyph glyph-name="uni71" unicode="&#x71;" d="M275-12Q184-12 128.50 54Q73 120 73 251Q73 311 86.50 361Q100 411 125 447Q150 483 186 503Q222 523 267 523Q371 523 424 437L424 511L460 511L460-182L424-200L424 84Q402 39 362.50 13.50Q323-12 275-12M275 24Q322 24 360.50 53.50Q399 83 424 134L424 389Q401 434 361.50 460.50Q322 487 275 487Q237 487 206.50 470Q176 453 155 421.50Q134 390 123 346.50Q112 303 112 251Q112 139 154.50 81.50Q197 24 275 24Z"  horiz-adv-x="568" vert-adv-y="1000"  />

      
      <glyph glyph-name="uni72" unicode="&#x72;" d="M108 0L108 511L144 511L144 402Q168 465 208.50 494Q249 523 294 523Q319 523 336 516.50Q353 510 362 502L356 466Q346 472 329 477.50Q312 483 289 483Q266 483 240.50 472.50Q215 462 193.50 438.50Q172 415 158 376.50Q144 338 144 283L144 0L108 0Z"  horiz-adv-x="390" vert-adv-y="1000"  />

      
      <glyph glyph-name="uni73" unicode="&#x73;" d="M348 437Q327 457 297.50 473Q268 489 227 489Q173 489 144 464Q115 439 115 397Q115 372 125 355Q135 338 152.50 325Q170 312 192.50 302Q215 292 240 282Q273 269 301 255.50Q329 242 349.50 224Q370 206 382 181Q394 156 394 120Q394 61 355 24.50Q316-12 241-12Q188-12 148 10.50Q108 33 80 65L108 89Q131 63 164.50 42.50Q198 22 240 22Q294 22 325.50 46Q357 70 357 120Q357 147 345 167Q333 187 313.50 203Q294 219 269 231Q244 243 217 253Q154 276 116 308Q78 340 78 397Q78 451 117.50 487Q157 523 228 523Q271 523 309.50 506Q348 489 375 460L348 437Z"  horiz-adv-x="467" vert-adv-y="1000"  />

      
      <glyph glyph-name="uni74" unicode="&#x74;" d="M229-12Q176-12 155.50 21Q135 54 135 104L135 478L48 478L48 511L135 511L135 704L171 722L171 511L301 511L301 478L171 478L171 109Q171 69 183 46Q195 23 233 23Q256 23 275.50 31Q295 39 308 47L304 9Q288-1 267.50-6.50Q247-12 229-12Z"  horiz-adv-x="371" vert-adv-y="1000"  />

      
      <glyph glyph-name="uni75" unicode="&#x75;" d="M418 0L418 86Q405 58 387.50 39Q370 20 350.50 9Q331-2 309.50-7Q288-12 268-12Q187-12 145 39.50Q103 91 103 199L103 511L139 511L139 191Q139 98 175 59.50Q211 21 270 21Q301 21 328.50 31Q356 41 375.50 64Q395 87 406.50 123.50Q418 160 418 214L418 511L454 511L454 0L418 0Z"  horiz-adv-x="562" vert-adv-y="1000"  />

      
      <glyph glyph-name="uni76" unicode="&#x76;" d="M266 0L240 0L58 511L94 511L253 68L412 511L448 511L266 0Z"  horiz-adv-x="506" vert-adv-y="1000"  />

      
      <glyph glyph-name="uni77" unicode="&#x77;" d="M520 0L494 0L354 443L214 0L188 0L58 511L94 511L204 68L341 511L367 511L504 68L614 511L650 511L520 0Z"  horiz-adv-x="708" vert-adv-y="1000"  />

      
      <glyph glyph-name="uni78" unicode="&#x78;" d="M58 0L229 266L72 511L111 511L249 297L387 511L426 511L268 266L440 0L401 0L249 236L97 0L58 0Z"  horiz-adv-x="498" vert-adv-y="1000"  />

      
      <glyph glyph-name="uni79" unicode="&#x79;" d="M237 12L53 511L89 511L255 59L421 511L457 511L197-194L161-194L237 12Z"  horiz-adv-x="515" vert-adv-y="1000"  />

      
      <glyph glyph-name="uni7a" unicode="&#x7a;" d="M73 0L73 22L379 478L93 478L93 511L427 511L427 490L120 33L426 33L426 0L73 0Z"  horiz-adv-x="505" vert-adv-y="1000"  />

      
      <glyph glyph-name="uni7b" unicode="&#x7b;" d="M94 290Q120 288 140.50 281.50Q161 275 175 259Q189 243 196.50 214Q204 185 204 138L204 56Q204-16 232-56Q260-96 319-98L319-130Q235-128 200-71Q165-14 165 101L165 162Q165 216 139.50 244Q114 272 72 272L68 272L68 311L72 311Q114 311 139.50 338.50Q165 366 165 421L165 481Q165 596 200 653Q235 710 319 712L319 680Q260 678 232 638Q204 598 204 526L204 444Q204 400 196.50 371.50Q189 343 175 326Q161 309 140.50 301.50Q120 294 94 292L94 290Z"  horiz-adv-x="384" vert-adv-y="1000"  />

      
      <glyph glyph-name="uni7c" unicode="&#x7c;" d="M120-205L120 805L156 805L156-205L120-205Z"  horiz-adv-x="276" vert-adv-y="1000"  />

      
      <glyph glyph-name="uni7d" unicode="&#x7d;" d="M290 292Q264 294 243.50 300.50Q223 307 209 323Q195 339 187.50 368Q180 397 180 444L180 526Q180 598 152 638Q124 678 65 680L65 712Q149 710 184 653Q219 596 219 481L219 420Q219 366 244.50 338Q270 310 312 310L316 310L316 271L312 271Q270 271 244.50 243.50Q219 216 219 161L219 101Q219-14 184-71Q149-128 65-130L65-98Q124-96 152-56Q180-16 180 56L180 138Q180 182 187.50 210.50Q195 239 209 256Q223 273 243.50 280.50Q264 288 290 290L290 292Z"  horiz-adv-x="384" vert-adv-y="1000"  />

      
      <glyph glyph-name="uni7e" unicode="&#x7e;" d="M448 277Q413 277 383.50 291.50Q354 306 327 324Q300 342 273 356.50Q246 371 216 371Q180 371 159.50 346.50Q139 322 137 277L100 277Q100 301 107 324.50Q114 348 128.50 366.50Q143 385 165 396Q187 407 218 407Q253 407 282.50 392.50Q312 378 339 360Q366 342 393 327.50Q420 313 450 313Q486 313 506.50 338Q527 363 529 407L566 407Q566 383 559 359.50Q552 336 538 317.50Q524 299 501.50 288Q479 277 448 277Z"  horiz-adv-x="666" vert-adv-y="1000"  />

      
      <glyph glyph-name="unic4" unicode="&#xc4;" d="M552 0L482 197L185 197L118 0L81 0L321 700L345 700L587 0L552 0M473 227L369 529Q367 535 362.50 549Q358 563 352.50 579.50Q347 596 342 612.50Q337 629 334 640Q331 629 326 612Q321 595 315 578Q309 561 304 547.50Q299 534 298 529L194 227L473 227M250 796Q238 796 229.50 804.50Q221 813 221 825Q221 838 229.50 847Q238 856 250 856Q263 856 271 847Q279 838 279 825Q279 813 271 804.50Q263 796 250 796M416 796Q404 796 395.50 804.50Q387 813 387 825Q387 838 395.50 847Q404 856 416 856Q429 856 437 847Q445 838 445 825Q445 813 437 804.50Q429 796 416 796Z"  horiz-adv-x="668" vert-adv-y="1000"  />

      
      <glyph glyph-name="unic5" unicode="&#xc5;" d="M482 197L186 197L117 0L81 0L301 639Q266 650 242.50 678Q219 706 219 746Q219 769 228 789.50Q237 810 253 825.50Q269 841 289.50 850Q310 859 334 859Q358 859 378.50 850Q399 841 415 825.50Q431 810 440 789.50Q449 769 449 746Q449 708 426 679Q403 650 367 639L587 0L551 0L482 197M195 227L473 227L334 634L195 227M334 665Q368 665 391.50 688Q415 711 415 746Q415 781 391.50 804.50Q368 828 334 828Q302 828 277.50 806Q253 784 253 746Q253 709 277.50 687Q302 665 334 665Z"  horiz-adv-x="668" vert-adv-y="1000"  />

      
      <glyph glyph-name="unic7" unicode="&#xc7;" d="M346-234Q323-234 305-226.50Q287-219 275-206L300-188Q308-194 318.50-199.50Q329-205 345-205Q376-205 392.50-187.50Q409-170 409-144Q409-118 391-101Q373-84 344-84Q322-84 306-92L296-80L345-11Q277-8 228.50 24Q180 56 149 106Q118 156 104 219.50Q90 283 90 350Q90 420 106.50 485Q123 550 156 600.50Q189 651 240 681.50Q291 712 360 712Q404 712 436.50 702.50Q469 693 492 677Q515 661 531.50 640.50Q548 620 560 599L529 581Q518 599 504.50 616Q491 633 471.50 646.50Q452 660 424.50 668Q397 676 360 676Q301 676 257.50 648.50Q214 621 185 576Q156 531 142 472Q128 413 128 350Q128 288 141 229Q154 170 181.50 124.50Q209 79 253.50 51.50Q298 24 361 24Q396 24 424.50 33Q453 42 474.50 56.50Q496 71 511.50 90Q527 109 537 129L570 116Q559 93 541.50 70.50Q524 48 499.50 30Q475 12 443.50 0.50Q412-11 372-12L345-59Q370-59 388.50-66.50Q407-74 419-86Q431-98 437-113Q443-128 443-143Q443-181 417.50-207.50Q392-234 346-234Z"  horiz-adv-x="650" vert-adv-y="1000"  />

      
      <glyph glyph-name="unic9" unicode="&#xc9;" d="M115 0L115 700L480 700L480 667L151 667L151 379L373 379L373 346L151 346L151 33L502 33L502 0L115 0M248 766L211 766L362 922L417 922L248 766Z"  horiz-adv-x="592" vert-adv-y="1000"  />

      
      <glyph glyph-name="unid1" unicode="&#xd1;" d="M541 0L151 631L151 0L115 0L115 700L150 700L540 69L540 700L576 700L576 0L541 0M425 792Q400 792 379 804.50Q358 817 338 832.50Q318 848 299 860.50Q280 873 259 873Q210 873 207 796L180 796Q180 844 201.50 875Q223 906 266 906Q291 906 312 893.50Q333 881 353 865.50Q373 850 392 837.50Q411 825 432 825Q481 825 484 902L511 902Q511 854 489.50 823Q468 792 425 792Z"  horiz-adv-x="691" vert-adv-y="1000"  />

      
      <glyph glyph-name="unid6" unicode="&#xd6;" d="M363 24Q428 24 473 53.50Q518 83 545.50 130Q573 177 585 235Q597 293 597 350Q597 412 585 471Q573 530 545.50 575.50Q518 621 473 648.50Q428 676 363 676Q298 676 253 646.50Q208 617 180.50 570Q153 523 141 465Q129 407 129 350Q129 288 141 229Q153 170 180.50 124.50Q208 79 253 51.50Q298 24 363 24M363-12Q288-12 236 20Q184 52 151.50 104Q119 156 104.50 220.50Q90 285 90 350Q90 415 104.50 479.50Q119 544 151.50 596Q184 648 236 680Q288 712 363 712Q438 712 490 680Q542 648 574.50 596Q607 544 621.50 479.50Q636 415 636 350Q636 285 621.50 220.50Q607 156 574.50 104Q542 52 490 20Q438-12 363-12M280 796Q268 796 259.50 804.50Q251 813 251 825Q251 838 259.50 847Q268 856 280 856Q293 856 301 847Q309 838 309 825Q309 813 301 804.50Q293 796 280 796M446 796Q434 796 425.50 804.50Q417 813 417 825Q417 838 425.50 847Q434 856 446 856Q459 856 467 847Q475 838 475 825Q475 813 467 804.50Q459 796 446 796Z"  horiz-adv-x="726" vert-adv-y="1000"  />

      
      <glyph glyph-name="unidc" unicode="&#xdc;" d="M334-12Q282-12 240.50 2.50Q199 17 170.50 48.50Q142 80 126.50 129.50Q111 179 111 249L111 700L147 700L147 251Q147 182 162.50 137.50Q178 93 203.50 67.50Q229 42 263 32Q297 22 334 22Q371 22 405 32Q439 42 464.50 67.50Q490 93 505.50 137.50Q521 182 521 251L521 700L557 700L557 249Q557 179 541.50 129.50Q526 80 497.50 48.50Q469 17 427.50 2.50Q386-12 334-12M251 796Q239 796 230.50 804.50Q222 813 222 825Q222 838 230.50 847Q239 856 251 856Q264 856 272 847Q280 838 280 825Q280 813 272 804.50Q264 796 251 796M417 796Q405 796 396.50 804.50Q388 813 388 825Q388 838 396.50 847Q405 856 417 856Q430 856 438 847Q446 838 446 825Q446 813 438 804.50Q430 796 417 796Z"  horiz-adv-x="668" vert-adv-y="1000"  />

      
      <glyph glyph-name="unie1" unicode="&#xe1;" d="M403 0L403 80Q373 38 330.50 13Q288-12 241-12Q166-12 122 30.50Q78 73 78 154Q78 196 92 226.50Q106 257 129.50 277Q153 297 185 306.50Q217 316 253 316Q294 316 331 303Q368 290 403 267L403 343Q403 388 392.50 417Q382 446 365 462Q348 478 325 484Q302 490 278 490Q236 490 195 474.50Q154 459 124 441L113 472Q142 489 185 506Q228 523 281 523Q308 523 336 516Q364 509 387 491Q410 473 424.50 441Q439 409 439 358L439 0L403 0M241 21Q269 21 293 30Q317 39 337 53.50Q357 68 373.50 86Q390 104 403 122L403 233Q374 253 335.50 268Q297 283 253 283Q227 283 202.50 275Q178 267 159 251.50Q140 236 128.50 211.50Q117 187 117 154Q117 94 150.50 57.50Q184 21 241 21M256 576L219 576L370 732L425 732L256 576Z"  horiz-adv-x="527" vert-adv-y="1000"  />

      
      <glyph glyph-name="unie0" unicode="&#xe0;" d="M403 0L403 80Q373 38 330.50 13Q288-12 241-12Q166-12 122 30.50Q78 73 78 154Q78 196 92 226.50Q106 257 129.50 277Q153 297 185 306.50Q217 316 253 316Q294 316 331 303Q368 290 403 267L403 343Q403 388 392.50 417Q382 446 365 462Q348 478 325 484Q302 490 278 490Q236 490 195 474.50Q154 459 124 441L113 472Q142 489 185 506Q228 523 281 523Q308 523 336 516Q364 509 387 491Q410 473 424.50 441Q439 409 439 358L439 0L403 0M241 21Q269 21 293 30Q317 39 337 53.50Q357 68 373.50 86Q390 104 403 122L403 233Q374 253 335.50 268Q297 283 253 283Q227 283 202.50 275Q178 267 159 251.50Q140 236 128.50 211.50Q117 187 117 154Q117 94 150.50 57.50Q184 21 241 21M316 576L147 732L202 732L353 576L316 576Z"  horiz-adv-x="527" vert-adv-y="1000"  />

      
      <glyph glyph-name="unie2" unicode="&#xe2;" d="M403 0L403 80Q373 38 330.50 13Q288-12 241-12Q166-12 122 30.50Q78 73 78 154Q78 196 92 226.50Q106 257 129.50 277Q153 297 185 306.50Q217 316 253 316Q294 316 331 303Q368 290 403 267L403 343Q403 388 392.50 417Q382 446 365 462Q348 478 325 484Q302 490 278 490Q236 490 195 474.50Q154 459 124 441L113 472Q142 489 185 506Q228 523 281 523Q308 523 336 516Q364 509 387 491Q410 473 424.50 441Q439 409 439 358L439 0L403 0M241 21Q269 21 293 30Q317 39 337 53.50Q357 68 373.50 86Q390 104 403 122L403 233Q374 253 335.50 268Q297 283 253 283Q227 283 202.50 275Q178 267 159 251.50Q140 236 128.50 211.50Q117 187 117 154Q117 94 150.50 57.50Q184 21 241 21M112 576L263 732L295 732L446 576L409 576L279 696L149 576L112 576Z"  horiz-adv-x="527" vert-adv-y="1000"  />

      
      <glyph glyph-name="unie4" unicode="&#xe4;" d="M403 0L403 80Q373 38 330.50 13Q288-12 241-12Q166-12 122 30.50Q78 73 78 154Q78 196 92 226.50Q106 257 129.50 277Q153 297 185 306.50Q217 316 253 316Q294 316 331 303Q368 290 403 267L403 343Q403 388 392.50 417Q382 446 365 462Q348 478 325 484Q302 490 278 490Q236 490 195 474.50Q154 459 124 441L113 472Q142 489 185 506Q228 523 281 523Q308 523 336 516Q364 509 387 491Q410 473 424.50 441Q439 409 439 358L439 0L403 0M241 21Q269 21 293 30Q317 39 337 53.50Q357 68 373.50 86Q390 104 403 122L403 233Q374 253 335.50 268Q297 283 253 283Q227 283 202.50 275Q178 267 159 251.50Q140 236 128.50 211.50Q117 187 117 154Q117 94 150.50 57.50Q184 21 241 21M196 606Q184 606 175.50 614.50Q167 623 167 635Q167 648 175.50 657Q184 666 196 666Q209 666 217 657Q225 648 225 635Q225 623 217 614.50Q209 606 196 606M362 606Q350 606 341.50 614.50Q333 623 333 635Q333 648 341.50 657Q350 666 362 666Q375 666 383 657Q391 648 391 635Q391 623 383 614.50Q375 606 362 606Z"  horiz-adv-x="527" vert-adv-y="1000"  />

      
      <glyph glyph-name="unie3" unicode="&#xe3;" d="M403 0L403 80Q373 38 330.50 13Q288-12 241-12Q166-12 122 30.50Q78 73 78 154Q78 196 92 226.50Q106 257 129.50 277Q153 297 185 306.50Q217 316 253 316Q294 316 331 303Q368 290 403 267L403 343Q403 388 392.50 417Q382 446 365 462Q348 478 325 484Q302 490 278 490Q236 490 195 474.50Q154 459 124 441L113 472Q142 489 185 506Q228 523 281 523Q308 523 336 516Q364 509 387 491Q410 473 424.50 441Q439 409 439 358L439 0L403 0M241 21Q269 21 293 30Q317 39 337 53.50Q357 68 373.50 86Q390 104 403 122L403 233Q374 253 335.50 268Q297 283 253 283Q227 283 202.50 275Q178 267 159 251.50Q140 236 128.50 211.50Q117 187 117 154Q117 94 150.50 57.50Q184 21 241 21M359 602Q334 602 313 614.50Q292 627 272 642.50Q252 658 233 670.50Q214 683 193 683Q144 683 141 606L114 606Q114 654 135.50 685Q157 716 200 716Q225 716 246 703.50Q267 691 287 675.50Q307 660 326 647.50Q345 635 366 635Q415 635 418 712L445 712Q445 664 423.50 633Q402 602 359 602Z"  horiz-adv-x="527" vert-adv-y="1000"  />

      
      <glyph glyph-name="unie5" unicode="&#xe5;" d="M403 0L403 80Q373 38 330.50 13Q288-12 241-12Q166-12 122 30.50Q78 73 78 154Q78 196 92 226.50Q106 257 129.50 277Q153 297 185 306.50Q217 316 253 316Q294 316 331 303Q368 290 403 267L403 343Q403 388 392.50 417Q382 446 365 462Q348 478 325 484Q302 490 278 490Q236 490 195 474.50Q154 459 124 441L113 472Q142 489 185 506Q228 523 281 523Q308 523 336 516Q364 509 387 491Q410 473 424.50 441Q439 409 439 358L439 0L403 0M241 21Q269 21 293 30Q317 39 337 53.50Q357 68 373.50 86Q390 104 403 122L403 233Q374 253 335.50 268Q297 283 253 283Q227 283 202.50 275Q178 267 159 251.50Q140 236 128.50 211.50Q117 187 117 154Q117 94 150.50 57.50Q184 21 241 21M284 575Q260 575 239.50 584Q219 593 203 608Q187 623 178 643.50Q169 664 169 687Q169 710 178 730.50Q187 751 203 766.50Q219 782 239.50 791Q260 800 284 800Q308 800 328.50 791Q349 782 365 766.50Q381 751 390 730.50Q399 710 399 687Q399 664 390 643.50Q381 623 365 608Q349 593 328.50 584Q308 575 284 575M283 606Q317 606 341 629Q365 652 365 687Q365 722 341 745.50Q317 769 283 769Q251 769 227 745.50Q203 722 203 687Q203 670 209.50 655Q216 640 227 629Q238 618 252.50 612Q267 606 283 606Z"  horiz-adv-x="527" vert-adv-y="1000"  />

      
      <glyph glyph-name="unie7" unicode="&#xe7;" d="M251-234Q228-234 210-226.50Q192-219 180-206L205-188Q213-194 223.50-199.50Q234-205 250-205Q281-205 297.50-187.50Q314-170 314-144Q314-118 296-101Q278-84 249-84Q227-84 211-92L201-80L250-12Q169-9 121 60Q73 129 73 255Q73 382 123.50 452.50Q174 523 264 523Q316 523 355 495.50Q394 468 413 416L377 402Q363 443 333 465Q303 487 264 487Q188 487 150 428Q112 369 112 255Q112 145 151.50 84.50Q191 24 257 24Q303 24 337 49.50Q371 75 384 118L420 105Q405 55 367.50 25Q330-5 278-10L250-59Q275-59 293.50-66.50Q312-74 324-86Q336-98 342-113Q348-128 348-143Q348-181 322.50-207.50Q297-234 251-234Z"  horiz-adv-x="483" vert-adv-y="1000"  />

      
      <glyph glyph-name="unie9" unicode="&#xe9;" d="M112 245Q116 130 160 77Q204 24 281 24Q310 24 341.50 34Q373 44 401 67L422 41Q395 18 357.50 3Q320-12 278-12Q180-12 126.50 60Q73 132 73 256Q73 320 88.50 369.50Q104 419 131 453Q158 487 195.50 505Q233 523 278 523Q319 523 353 507.50Q387 492 411.50 459.50Q436 427 449.50 376.50Q463 326 463 256L463 245L112 245M278 490Q244 490 215 477.50Q186 465 164 439.50Q142 414 128.50 373.50Q115 333 112 278L425 278Q425 342 410.50 383.50Q396 425 374 448.50Q352 472 326.50 481Q301 490 278 490M254 576L217 576L368 732L423 732L254 576Z"  horiz-adv-x="531" vert-adv-y="1000"  />

      
      <glyph glyph-name="unie8" unicode="&#xe8;" d="M112 245Q116 130 160 77Q204 24 281 24Q310 24 341.50 34Q373 44 401 67L422 41Q395 18 357.50 3Q320-12 278-12Q180-12 126.50 60Q73 132 73 256Q73 320 88.50 369.50Q104 419 131 453Q158 487 195.50 505Q233 523 278 523Q319 523 353 507.50Q387 492 411.50 459.50Q436 427 449.50 376.50Q463 326 463 256L463 245L112 245M278 490Q244 490 215 477.50Q186 465 164 439.50Q142 414 128.50 373.50Q115 333 112 278L425 278Q425 342 410.50 383.50Q396 425 374 448.50Q352 472 326.50 481Q301 490 278 490M296 576L127 732L182 732L333 576L296 576Z"  horiz-adv-x="531" vert-adv-y="1000"  />

      
      <glyph glyph-name="uniea" unicode="&#xea;" d="M112 245Q116 130 160 77Q204 24 281 24Q310 24 341.50 34Q373 44 401 67L422 41Q395 18 357.50 3Q320-12 278-12Q180-12 126.50 60Q73 132 73 256Q73 320 88.50 369.50Q104 419 131 453Q158 487 195.50 505Q233 523 278 523Q319 523 353 507.50Q387 492 411.50 459.50Q436 427 449.50 376.50Q463 326 463 256L463 245L112 245M278 490Q244 490 215 477.50Q186 465 164 439.50Q142 414 128.50 373.50Q115 333 112 278L425 278Q425 342 410.50 383.50Q396 425 374 448.50Q352 472 326.50 481Q301 490 278 490M111 576L262 732L294 732L445 576L408 576L278 696L148 576L111 576Z"  horiz-adv-x="531" vert-adv-y="1000"  />

      
      <glyph glyph-name="unieb" unicode="&#xeb;" d="M112 245Q116 130 160 77Q204 24 281 24Q310 24 341.50 34Q373 44 401 67L422 41Q395 18 357.50 3Q320-12 278-12Q180-12 126.50 60Q73 132 73 256Q73 320 88.50 369.50Q104 419 131 453Q158 487 195.50 505Q233 523 278 523Q319 523 353 507.50Q387 492 411.50 459.50Q436 427 449.50 376.50Q463 326 463 256L463 245L112 245M278 490Q244 490 215 477.50Q186 465 164 439.50Q142 414 128.50 373.50Q115 333 112 278L425 278Q425 342 410.50 383.50Q396 425 374 448.50Q352 472 326.50 481Q301 490 278 490M195 606Q183 606 174.50 614.50Q166 623 166 635Q166 648 174.50 657Q183 666 195 666Q208 666 216 657Q224 648 224 635Q224 623 216 614.50Q208 606 195 606M361 606Q349 606 340.50 614.50Q332 623 332 635Q332 648 340.50 657Q349 666 361 666Q374 666 382 657Q390 648 390 635Q390 623 382 614.50Q374 606 361 606Z"  horiz-adv-x="531" vert-adv-y="1000"  />

      
      <glyph glyph-name="unied" unicode="&#xed;" d="M111 0L111 511L147 511L147 0L111 0M83 576L46 576L197 732L252 732L83 576Z"  horiz-adv-x="258" vert-adv-y="1000"  />

      
      <glyph glyph-name="uniec" unicode="&#xec;" d="M111 0L111 511L147 511L147 0L111 0M178 576L9 732L64 732L215 576L178 576Z"  horiz-adv-x="258" vert-adv-y="1000"  />

      
      <glyph glyph-name="uniee" unicode="&#xee;" d="M111 0L111 511L147 511L147 0L111 0M-38 576L113 732L145 732L296 576L259 576L129 696L-1 576L-38 576Z"  horiz-adv-x="258" vert-adv-y="1000"  />

      
      <glyph glyph-name="unief" unicode="&#xef;" d="M111 0L111 511L147 511L147 0L111 0M46 606Q34 606 25.50 614.50Q17 623 17 635Q17 648 25.50 657Q34 666 46 666Q59 666 67 657Q75 648 75 635Q75 623 67 614.50Q59 606 46 606M212 606Q200 606 191.50 614.50Q183 623 183 635Q183 648 191.50 657Q200 666 212 666Q225 666 233 657Q241 648 241 635Q241 623 233 614.50Q225 606 212 606Z"  horiz-adv-x="258" vert-adv-y="1000"  />

      
      <glyph glyph-name="unif1" unicode="&#xf1;" d="M144 419Q154 447 171.50 467Q189 487 209.50 499.50Q230 512 252.50 517.50Q275 523 295 523Q376 523 417.50 471.50Q459 420 459 312L459 0L423 0L423 319Q423 412 387 450.50Q351 489 292 489Q260 489 233 479Q206 469 186.50 446.50Q167 424 155.50 387.50Q144 351 144 297L144 0L108 0L108 511L144 511L144 419M369 602Q344 602 323 614.50Q302 627 282 642.50Q262 658 243 670.50Q224 683 203 683Q154 683 151 606L124 606Q124 654 145.50 685Q167 716 210 716Q235 716 256 703.50Q277 691 297 675.50Q317 660 336 647.50Q355 635 376 635Q425 635 428 712L455 712Q455 664 433.50 633Q412 602 369 602Z"  horiz-adv-x="562" vert-adv-y="1000"  />

      
      <glyph glyph-name="unif3" unicode="&#xf3;" d="M275 24Q353 24 395.50 85Q438 146 438 256Q438 365 396.50 426Q355 487 275 487Q195 487 153.50 427.50Q112 368 112 255Q112 146 153.50 85Q195 24 275 24M275 523Q366 523 421.50 453.50Q477 384 477 256Q477 193 462.50 143Q448 93 421.50 58.50Q395 24 357.50 6Q320-12 275-12Q184-12 128.50 57.50Q73 127 73 255Q73 318 87.50 367.50Q102 417 128.50 451.50Q155 486 192.50 504.50Q230 523 275 523M261 576L224 576L375 732L430 732L261 576Z"  horiz-adv-x="550" vert-adv-y="1000"  />

      
      <glyph glyph-name="unif2" unicode="&#xf2;" d="M275 24Q353 24 395.50 85Q438 146 438 256Q438 365 396.50 426Q355 487 275 487Q195 487 153.50 427.50Q112 368 112 255Q112 146 153.50 85Q195 24 275 24M275 523Q366 523 421.50 453.50Q477 384 477 256Q477 193 462.50 143Q448 93 421.50 58.50Q395 24 357.50 6Q320-12 275-12Q184-12 128.50 57.50Q73 127 73 255Q73 318 87.50 367.50Q102 417 128.50 451.50Q155 486 192.50 504.50Q230 523 275 523M289 576L120 732L175 732L326 576L289 576Z"  horiz-adv-x="550" vert-adv-y="1000"  />

      
      <glyph glyph-name="unif4" unicode="&#xf4;" d="M275 24Q353 24 395.50 85Q438 146 438 256Q438 365 396.50 426Q355 487 275 487Q195 487 153.50 427.50Q112 368 112 255Q112 146 153.50 85Q195 24 275 24M275 523Q366 523 421.50 453.50Q477 384 477 256Q477 193 462.50 143Q448 93 421.50 58.50Q395 24 357.50 6Q320-12 275-12Q184-12 128.50 57.50Q73 127 73 255Q73 318 87.50 367.50Q102 417 128.50 451.50Q155 486 192.50 504.50Q230 523 275 523M108 576L259 732L291 732L442 576L405 576L275 696L145 576L108 576Z"  horiz-adv-x="550" vert-adv-y="1000"  />

      
      <glyph glyph-name="unif6" unicode="&#xf6;" d="M275 24Q353 24 395.50 85Q438 146 438 256Q438 365 396.50 426Q355 487 275 487Q195 487 153.50 427.50Q112 368 112 255Q112 146 153.50 85Q195 24 275 24M275 523Q366 523 421.50 453.50Q477 384 477 256Q477 193 462.50 143Q448 93 421.50 58.50Q395 24 357.50 6Q320-12 275-12Q184-12 128.50 57.50Q73 127 73 255Q73 318 87.50 367.50Q102 417 128.50 451.50Q155 486 192.50 504.50Q230 523 275 523M192 606Q180 606 171.50 614.50Q163 623 163 635Q163 648 171.50 657Q180 666 192 666Q205 666 213 657Q221 648 221 635Q221 623 213 614.50Q205 606 192 606M358 606Q346 606 337.50 614.50Q329 623 329 635Q329 648 337.50 657Q346 666 358 666Q371 666 379 657Q387 648 387 635Q387 623 379 614.50Q371 606 358 606Z"  horiz-adv-x="550" vert-adv-y="1000"  />

      
      <glyph glyph-name="unif5" unicode="&#xf5;" d="M275 24Q353 24 395.50 85Q438 146 438 256Q438 365 396.50 426Q355 487 275 487Q195 487 153.50 427.50Q112 368 112 255Q112 146 153.50 85Q195 24 275 24M275 523Q366 523 421.50 453.50Q477 384 477 256Q477 193 462.50 143Q448 93 421.50 58.50Q395 24 357.50 6Q320-12 275-12Q184-12 128.50 57.50Q73 127 73 255Q73 318 87.50 367.50Q102 417 128.50 451.50Q155 486 192.50 504.50Q230 523 275 523M355 602Q330 602 309 614.50Q288 627 268 642.50Q248 658 229 670.50Q210 683 189 683Q140 683 137 606L110 606Q110 654 131.50 685Q153 716 196 716Q221 716 242 703.50Q263 691 283 675.50Q303 660 322 647.50Q341 635 362 635Q411 635 414 712L441 712Q441 664 419.50 633Q398 602 355 602Z"  horiz-adv-x="550" vert-adv-y="1000"  />

      
      <glyph glyph-name="unifa" unicode="&#xfa;" d="M418 0L418 86Q405 58 387.50 39Q370 20 350.50 9Q331-2 309.50-7Q288-12 268-12Q187-12 145 39.50Q103 91 103 199L103 511L139 511L139 191Q139 98 175 59.50Q211 21 270 21Q301 21 328.50 31Q356 41 375.50 64Q395 87 406.50 123.50Q418 160 418 214L418 511L454 511L454 0L418 0M251 576L214 576L365 732L420 732L251 576Z"  horiz-adv-x="562" vert-adv-y="1000"  />

      
      <glyph glyph-name="unif9" unicode="&#xf9;" d="M418 0L418 86Q405 58 387.50 39Q370 20 350.50 9Q331-2 309.50-7Q288-12 268-12Q187-12 145 39.50Q103 91 103 199L103 511L139 511L139 191Q139 98 175 59.50Q211 21 270 21Q301 21 328.50 31Q356 41 375.50 64Q395 87 406.50 123.50Q418 160 418 214L418 511L454 511L454 0L418 0M302 576L133 732L188 732L339 576L302 576Z"  horiz-adv-x="562" vert-adv-y="1000"  />

      
      <glyph glyph-name="unifb" unicode="&#xfb;" d="M418 0L418 86Q405 58 387.50 39Q370 20 350.50 9Q331-2 309.50-7Q288-12 268-12Q187-12 145 39.50Q103 91 103 199L103 511L139 511L139 191Q139 98 175 59.50Q211 21 270 21Q301 21 328.50 31Q356 41 375.50 64Q395 87 406.50 123.50Q418 160 418 214L418 511L454 511L454 0L418 0M108 576L259 732L291 732L442 576L405 576L275 696L145 576L108 576Z"  horiz-adv-x="562" vert-adv-y="1000"  />

      
      <glyph glyph-name="unifc" unicode="&#xfc;" d="M418 0L418 86Q405 58 387.50 39Q370 20 350.50 9Q331-2 309.50-7Q288-12 268-12Q187-12 145 39.50Q103 91 103 199L103 511L139 511L139 191Q139 98 175 59.50Q211 21 270 21Q301 21 328.50 31Q356 41 375.50 64Q395 87 406.50 123.50Q418 160 418 214L418 511L454 511L454 0L418 0M192 606Q180 606 171.50 614.50Q163 623 163 635Q163 648 171.50 657Q180 666 192 666Q205 666 213 657Q221 648 221 635Q221 623 213 614.50Q205 606 192 606M358 606Q346 606 337.50 614.50Q329 623 329 635Q329 648 337.50 657Q346 666 358 666Q371 666 379 657Q387 648 387 635Q387 623 379 614.50Q371 606 358 606Z"  horiz-adv-x="562" vert-adv-y="1000"  />

      
      <glyph glyph-name="uni2020" unicode="&#x2020;" d="M293 464L301 338L286-141L280-141L265 338L273 464L133 455L98 455L98 489L133 489L273 480L265 587L265 712L301 712L301 587L293 480L433 489L468 489L468 455L433 455L293 464Z"  horiz-adv-x="566" vert-adv-y="1000"  />

      
      <glyph glyph-name="unib0" unicode="&#xb0;" d="M203 482Q174 482 149.50 492Q125 502 107 520Q89 538 78.50 562.50Q68 587 68 616Q68 645 78.50 669.50Q89 694 107 712Q125 730 149.50 740Q174 750 203 750Q231 750 256 740Q281 730 299 712Q317 694 327.50 669.50Q338 645 338 616Q338 587 327.50 562.50Q317 538 299 520Q281 502 256 492Q231 482 203 482M203 515Q247 515 275.50 544Q304 573 304 616Q304 660 275.50 688.50Q247 717 203 717Q158 717 130 688.50Q102 660 102 616Q102 573 130 544Q158 515 203 515Z"  horiz-adv-x="406" vert-adv-y="1000"  />

      
      <glyph glyph-name="unia2" unicode="&#xa2;" d="M250-12L250 82Q174 90 129.50 158.50Q85 227 85 348Q85 465 128.50 534.50Q172 604 250 614L250 712L286 712L286 616Q334 613 370.50 585.50Q407 558 425 509L389 495Q375 536 345 557.50Q315 579 276 579Q200 579 162 520.50Q124 462 124 348Q124 238 163.50 178Q203 118 269 118Q315 118 349 143Q383 168 396 211L432 198Q416 147 378 117Q340 87 286 82L286-12L250-12Z"  horiz-adv-x="517" vert-adv-y="1000"  />

      
      <glyph glyph-name="unia3" unicode="&#xa3;" d="M108 0L108 40Q167 92 188.50 143.50Q210 195 210 250Q210 266 208 281.50Q206 297 203 311L108 311L108 344L194 344Q187 368 178 390.50Q169 413 161.50 435.50Q154 458 149 480Q144 502 144 526Q144 562 156.50 595.50Q169 629 194.50 655Q220 681 258.50 696.50Q297 712 350 712Q405 712 449.50 697.50Q494 683 526 658L511 625Q488 645 449 661Q410 677 350 677Q305 677 273.50 663.50Q242 650 221.50 629Q201 608 191.50 581Q182 554 182 527Q182 503 187.50 481Q193 459 201 436.50Q209 414 218 391Q227 368 234 344L402 344L402 311L242 311Q248 285 248 258Q248 187 220 131Q192 75 142 33L542 33L542 0L108 0Z"  horiz-adv-x="610" vert-adv-y="1000"  />

      
      <glyph glyph-name="unia7" unicode="&#xa7;" d="M399 624Q381 640 348.50 658Q316 676 262 676Q235 676 210.50 669.50Q186 663 167.50 650Q149 637 138.50 617Q128 597 128 570Q128 542 138 523Q148 504 170 488.50Q192 473 226 459Q260 445 307 427Q335 416 362 403.50Q389 391 409.50 374Q430 357 442.50 334Q455 311 455 279Q455 247 434.50 215Q414 183 370 169Q416 146 435.50 109.50Q455 73 455 33Q455-7 441-36Q427-65 401.50-83.50Q376-102 341-111Q306-120 264-120Q199-120 153.50-97.50Q108-75 83-49L111-23Q121-32 135-43Q149-54 167.50-63Q186-72 210-78Q234-84 264-84Q296-84 324-78Q352-72 372.50-58.50Q393-45 404.50-22.50Q416 0 416 33Q416 69 398.50 92.50Q381 116 353 133.50Q325 151 290 164Q255 177 220 191Q190 203 166 214.50Q142 226 125 241Q108 256 98.50 275Q89 294 89 321Q89 366 119.50 395Q150 424 195 432Q136 456 112.50 493Q89 530 89 573Q89 606 103 631.50Q117 657 140.50 675Q164 693 195.50 702.50Q227 712 262 712Q293 712 319 706Q345 700 365.50 691Q386 682 401.50 671Q417 660 428 650L399 624M416 276Q416 303 401.50 323Q387 343 362.50 358.50Q338 374 304.50 386.50Q271 399 233 412Q184 404 156 380.50Q128 357 128 321Q128 289 157 267Q186 245 231 228Q264 216 292.50 205.50Q321 195 338 187Q371 199 393.50 221.50Q416 244 416 276Z"  horiz-adv-x="538" vert-adv-y="1000"  />

      
      <glyph glyph-name="uni2022" unicode="&#x2022;" d="M211 264Q174 264 148.50 289.50Q123 315 123 351Q123 387 148.50 412.50Q174 438 211 438Q248 438 273.50 412.50Q299 387 299 351Q299 315 273.50 289.50Q248 264 211 264Z"  horiz-adv-x="422" vert-adv-y="1000"  />

      
      <glyph glyph-name="unib6" unicode="&#xb6;" d="M457-109L457 647L350 647L350-157L314-174L314 295Q240 295 190.50 313Q141 331 111 359.50Q81 388 68 423Q55 458 55 491Q55 527 66 561.50Q77 596 101.50 623Q126 650 166.50 666.50Q207 683 267 683L493 683L493-91L457-109M314 647L269 647Q219 647 185.50 634Q152 621 132 599Q112 577 103 549.50Q94 522 94 492Q94 464 105 435.50Q116 407 141.50 383.50Q167 360 209 345.50Q251 331 314 331L314 647Z"  horiz-adv-x="608" vert-adv-y="1000"  />

      
      <glyph glyph-name="unidf" unicode="&#xdf;" d="M306 24Q335 24 362.50 34.50Q390 45 411 66.50Q432 88 445 121Q458 154 458 199Q458 230 448.50 259.50Q439 289 418 312Q397 335 362.50 349Q328 363 278 363L274 363L274 396L278 396Q343 396 382.50 429Q422 462 422 534Q422 601 387.50 638.50Q353 676 283 676Q252 676 225.50 665Q199 654 179 631Q159 608 147.50 572Q136 536 136 486L136-176L100-194L100 486Q100 548 116 591Q132 634 158 661Q184 688 217 700Q250 712 283 712Q323 712 356 699Q389 686 412.50 663Q436 640 448.50 607Q461 574 461 534Q461 512 456 488Q451 464 437.50 442.50Q424 421 401.50 405Q379 389 345 382Q384 376 412.50 358Q441 340 460 314.50Q479 289 488 259Q497 229 497 199Q497 148 482 108.50Q467 69 441.50 42.50Q416 16 381 2Q346-12 306-12Q287-12 272-9.50Q257-7 247-3L265 28Q281 24 306 24Z"  horiz-adv-x="572" vert-adv-y="1000"  />

      
      <glyph glyph-name="uniae" unicode="&#xae;" d="M440-12Q363-12 297 15.50Q231 43 182 92Q133 141 105.50 207Q78 273 78 350Q78 427 105.50 493Q133 559 182 608Q231 657 297 684.50Q363 712 440 712Q517 712 583 684.50Q649 657 698 608Q747 559 774.50 493Q802 427 802 350Q802 273 774.50 207Q747 141 698 92Q649 43 583 15.50Q517-12 440-12M440 22Q510 22 570 47Q630 72 673.50 116Q717 160 741.50 220Q766 280 766 350Q766 420 741.50 480Q717 540 673.50 584Q630 628 570 653Q510 678 440 678Q369 678 309.50 653Q250 628 206.50 584Q163 540 138.50 480Q114 420 114 350Q114 280 138.50 220Q163 160 206.50 116Q250 72 309.50 47Q369 22 440 22M599 438Q599 393 572 359.50Q545 326 488 321L593 137L551 137L449 319L339 319L339 137L303 137L303 560L481 560Q514 560 536.50 548Q559 536 573 518Q587 500 593 478.50Q599 457 599 438M472 355Q497 355 514 362Q531 369 541.50 380.50Q552 392 556.50 407Q561 422 561 438Q561 453 557 468.50Q553 484 543 496.50Q533 509 515.50 516.50Q498 524 472 524L339 524L339 355L472 355Z"  horiz-adv-x="880" vert-adv-y="1000"  />

      
      <glyph glyph-name="unia9" unicode="&#xa9;" d="M440-12Q363-12 297 15.50Q231 43 182 92Q133 141 105.50 207Q78 273 78 350Q78 427 105.50 493Q133 559 182 608Q231 657 297 684.50Q363 712 440 712Q517 712 583 684.50Q649 657 698 608Q747 559 774.50 493Q802 427 802 350Q802 273 774.50 207Q747 141 698 92Q649 43 583 15.50Q517-12 440-12M440 22Q510 22 570 47Q630 72 673.50 116Q717 160 741.50 220Q766 280 766 350Q766 420 741.50 480Q717 540 673.50 584Q630 628 570 653Q510 678 440 678Q369 678 309.50 653Q250 628 206.50 584Q163 540 138.50 480Q114 420 114 350Q114 280 138.50 220Q163 160 206.50 116Q250 72 309.50 47Q369 22 440 22M446 138Q364 138 321.50 193.50Q279 249 279 355Q279 454 321.50 513.50Q364 573 445 573Q497 573 530.50 550Q564 527 582 485L548 471Q535 499 509.50 518.50Q484 538 445 538Q381 538 349 489Q317 440 317 355Q317 264 350 218.50Q383 173 446 173Q483 173 513.50 190Q544 207 558 249L588 237Q571 189 534.50 163.50Q498 138 446 138Z"  horiz-adv-x="880" vert-adv-y="1000"  />

      
      <glyph glyph-name="uni2122" unicode="&#x2122;" d="M199 666L199 278L163 278L163 666L43 666L43 700L318 700L318 666L199 666M663 278L663 575L534 268L405 575L405 278L369 278L369 700L391 700L534 358L677 700L699 700L699 278L663 278Z"  horiz-adv-x="792" vert-adv-y="1000"  />

      
      <glyph glyph-name="unib4" unicode="&#xb4;" d="M136 576L99 576L250 732L305 732L136 576Z"  horiz-adv-x="341" vert-adv-y="1000"  />

      
      <glyph glyph-name="unia8" unicode="&#xa8;" d="M89 606Q77 606 68.50 614.50Q60 623 60 635Q60 648 68.50 657Q77 666 89 666Q102 666 110 657Q118 648 118 635Q118 623 110 614.50Q102 606 89 606M255 606Q243 606 234.50 614.50Q226 623 226 635Q226 648 234.50 657Q243 666 255 666Q268 666 276 657Q284 648 284 635Q284 623 276 614.50Q268 606 255 606Z"  horiz-adv-x="341" vert-adv-y="1000"  />

      
      <glyph glyph-name="uni2260" unicode="&#x2260;" d="M300 229L245 123L202 123L257 229L98 229L98 265L275 265L355 419L98 419L98 455L373 455L420 546L463 546L416 455L568 455L568 419L398 419L318 265L568 265L568 229L300 229Z"  horiz-adv-x="666" vert-adv-y="1000"  />

      
      <glyph glyph-name="unic6" unicode="&#xc6;" d="M411 0L411 197L162 197L49 0L8 0L412 700L747 700L747 667L447 667L447 379L640 379L640 346L447 346L447 33L769 33L769 0L411 0M411 227L411 634L178 227L411 227Z"  horiz-adv-x="859" vert-adv-y="1000"  />

      
      <glyph glyph-name="unid8" unicode="&#xd8;" d="M561 616Q601 562 618.50 492Q636 422 636 350Q636 285 621.50 220.50Q607 156 574.50 104Q542 52 490 20Q438-12 363-12Q306-12 263 6.50Q220 25 188 57L142-12L101-12L165 84Q125 137 107.50 207.50Q90 278 90 350Q90 415 104.50 479.50Q119 544 151.50 596Q184 648 236 680Q288 712 363 712Q420 712 462.50 693.50Q505 675 537 643L584 712L625 712L561 616M363 24Q428 24 473 53.50Q518 83 545.50 130Q573 177 585.50 235Q598 293 598 350Q598 416 584.50 477Q571 538 540 584L208 87Q235 58 273.50 41Q312 24 363 24M128 350Q128 284 141 223Q154 162 186 115L517 612Q490 641 452 658.50Q414 676 363 676Q298 676 253 646.50Q208 617 180 570Q152 523 140 465Q128 407 128 350Z"  horiz-adv-x="726" vert-adv-y="1000"  />

      
      <glyph glyph-name="uni221E" unicode="&#x221E;" d="M737 143Q695 143 660.50 157Q626 171 597.50 196.50Q569 222 546.50 256Q524 290 505 331Q485 292 461.50 258Q438 224 409.50 198.50Q381 173 347 158Q313 143 272 143Q228 143 190 157Q152 171 124 198.50Q96 226 79.50 266Q63 306 63 357Q63 409 79.50 449Q96 489 124 516.50Q152 544 190 558.50Q228 573 272 573Q313 573 347 557.50Q381 542 409.50 516Q438 490 461 455.50Q484 421 504 383Q523 424 545.50 459Q568 494 596 519.50Q624 545 658 559Q692 573 735 573Q779 573 817 558.50Q855 544 883.50 516.50Q912 489 928.50 449Q945 409 945 357Q945 306 929 266Q913 226 884.50 198.50Q856 171 818 157Q780 143 737 143M737 176Q773 176 804 188Q835 200 858 223.50Q881 247 894 280.50Q907 314 907 357Q907 400 894 434Q881 468 857.50 491.50Q834 515 802.50 527.50Q771 540 735 540Q696 540 663 524Q630 508 603 482.50Q576 457 554.50 424Q533 391 516 357Q533 322 555 289.50Q577 257 604 231.50Q631 206 664 191Q697 176 737 176M272 176Q312 176 344.50 191Q377 206 404 231.50Q431 257 452.50 289.50Q474 322 491 357Q474 391 452.50 424Q431 457 404 482.50Q377 508 344.50 524Q312 540 272 540Q236 540 205 527.50Q174 515 151 491.50Q128 468 114.50 434Q101 400 101 357Q101 314 114.50 280.50Q128 247 151 223.50Q174 200 205 188Q236 176 272 176Z"  horiz-adv-x="1008" vert-adv-y="1000"  />

      
      <glyph glyph-name="unib1" unicode="&#xb1;" d="M350 388L350 204L314 204L314 388L98 388L98 424L314 424L314 608L350 608L350 424L568 424L568 388L350 388M98 0L98 36L568 36L568 0L98 0Z"  horiz-adv-x="666" vert-adv-y="1000"  />

      
      <glyph glyph-name="uni2264" unicode="&#x2264;" d="M568 156L98 360L98 398L568 602L568 561L145 379L568 197L568 156M98 0L98 36L568 36L568 0L98 0Z"  horiz-adv-x="666" vert-adv-y="1000"  />

      
      <glyph glyph-name="uni2265" unicode="&#x2265;" d="M98 0L98 36L568 36L568 0L98 0M98 156L98 197L521 379L98 561L98 602L568 398L568 360L98 156Z"  horiz-adv-x="666" vert-adv-y="1000"  />

      
      <glyph glyph-name="unia5" unicode="&#xa5;" d="M315 309L469 309L469 276L300 276L300 156L469 156L469 123L300 123L300 0L264 0L264 123L83 123L83 156L264 156L264 276L83 276L83 309L249 309L36 700L75 700L282 318L489 700L528 700L315 309Z"  horiz-adv-x="564" vert-adv-y="1000"  />

      
      <glyph glyph-name="unib5" unicode="&#xb5;" d="M418 0L418 86Q398 40 359.50 14Q321-12 268-12Q225-12 192 3Q159 18 139 50L139-181L103-200L103 511L139 511L139 191Q139 138 150.50 105Q162 72 180.50 53.50Q199 35 222.50 28Q246 21 270 21Q301 21 328 31Q355 41 375 63.50Q395 86 406.50 123Q418 160 418 214L418 511L454 511L454 0L418 0Z"  horiz-adv-x="562" vert-adv-y="1000"  />

      
      <glyph glyph-name="uni2202" unicode="&#x2202;" d="M251-12Q209-12 173.50 2Q138 16 112.50 42Q87 68 72.50 104.50Q58 141 58 185Q58 240 76 286Q94 332 124.50 365Q155 398 196 416.50Q237 435 284 435Q365 435 413.50 394.50Q462 354 470 283Q472 312 472.50 328.50Q473 345 473 354Q473 432 456.50 490Q440 548 409 587.50Q378 627 333.50 649.50Q289 672 234 680L242 712Q375 692 442 604.50Q509 517 509 354Q509 280 495 213.50Q481 147 450 97Q419 47 370 17.50Q321-12 251-12M251 24Q294 24 330 39Q366 54 391.50 81Q417 108 431.50 147Q446 186 446 234Q446 313 401 355Q356 397 284 397Q244 397 210 381.50Q176 366 151 338Q126 310 111.50 271Q97 232 97 185Q97 149 108.50 119Q120 89 140.50 68Q161 47 189.50 35.50Q218 24 251 24Z"  horiz-adv-x="592" vert-adv-y="1000"  />

      
      <glyph glyph-name="uni2211" unicode="&#x2211;" d="M75-142L75-113L371 288L89 669L89 698L550 698L550 662L142 662L417 290L127-106L570-106L570-142L75-142Z"  horiz-adv-x="636" vert-adv-y="1000"  />

      
      <glyph glyph-name="uni220F" unicode="&#x220F;" d="M555-140L555 664L151 664L151-140L115-140L115 700L591 700L591-140L555-140Z"  horiz-adv-x="706" vert-adv-y="1000"  />

      
      <glyph glyph-name="uni03C0" unicode="&#x03C0;" d="M506-12Q453-12 432.50 21Q412 54 412 104L412 475L211 475L211 333Q211 264 204.50 209.50Q198 155 184 112Q170 69 146.50 36.50Q123 4 89-20L60 3Q84 19 104.50 42Q125 65 141 101.50Q157 138 166 192Q175 246 175 326L175 475L78 475L78 511L577 511L577 475L448 475L448 109Q448 69 460 46Q472 23 510 23Q533 23 552.50 31Q572 39 585 47L581 9Q565-1 544.50-6.50Q524-12 506-12Z"  horiz-adv-x="652" vert-adv-y="1000"  />

      
      <glyph glyph-name="uni222B" unicode="&#x222B;" d="M109-140Q93-140 77-135.50Q61-131 48-124L48-92Q62-98 75.50-102.50Q89-107 109-107Q144-107 157.50-88Q171-69 171-27L171 603Q171 712 269 712Q285 712 301 707.50Q317 703 330 696L330 664Q316 670 302.50 674.50Q289 679 269 679Q234 679 220.50 660Q207 641 207 599L207-31Q207-140 109-140Z"  horiz-adv-x="378" vert-adv-y="1000"  />

      
      <glyph glyph-name="uniaa" unicode="&#xaa;" d="M339 283L339 325Q315 304 279.50 288.50Q244 273 206 273Q142 273 102.50 307.50Q63 342 63 408Q63 444 76.50 470Q90 496 112.50 513.50Q135 531 163.50 539Q192 547 221 547Q254 547 285 538.50Q316 530 339 517L339 554Q339 624 309.50 651Q280 678 221 678Q187 678 158.50 668Q130 658 108 644L98 676Q121 691 155 701.50Q189 712 221 712Q257 712 285.50 704.50Q314 697 334 680Q354 663 364.50 633.50Q375 604 375 561L375 283L339 283M206 306Q251 306 284.50 323Q318 340 339 360L339 481Q319 494 286.50 504Q254 514 221 514Q200 514 178.50 508Q157 502 140 489.50Q123 477 112.50 456.50Q102 436 102 408Q102 355 132 330.50Q162 306 206 306Z"  horiz-adv-x="458" vert-adv-y="1000"  />

      
      <glyph glyph-name="uniba" unicode="&#xba;" d="M237 272Q157 272 109.50 329Q62 386 62 492Q62 596 109.50 654Q157 712 237 712Q318 712 365.50 654Q413 596 413 492Q413 386 365.50 329Q318 272 237 272M237 309Q300 309 337 356.50Q374 404 374 492Q374 579 337 627Q300 675 237 675Q175 675 138 627Q101 579 101 492Q101 404 138 356.50Q175 309 237 309Z"  horiz-adv-x="475" vert-adv-y="1000"  />

      
      <glyph glyph-name="unie6" unicode="&#xe6;" d="M442 245Q446 129 490 76.50Q534 24 611 24Q640 24 671.50 34Q703 44 731 67L752 41Q725 18 687.50 3Q650-12 608-12Q544-12 498.50 19.50Q453 51 429 109Q387 42 336 15Q285-12 241-12Q166-12 122 30.50Q78 73 78 154Q78 196 92 226.50Q106 257 129.50 277Q153 297 185 306.50Q217 316 253 316Q294 316 331 303Q368 290 403 267L403 343Q403 388 392.50 417Q382 446 365 462Q348 478 325 484Q302 490 278 490Q236 490 195 474.50Q154 459 124 441L113 472Q142 489 185 506Q228 523 281 523Q304 523 328.50 518Q353 513 375 499.50Q397 486 412.50 461.50Q428 437 433 399Q456 462 503 492.50Q550 523 608 523Q649 523 683 507.50Q717 492 741.50 459.50Q766 427 779.50 376.50Q793 326 793 256L793 245L442 245M241 21Q298 21 342 57Q386 93 416 145Q406 180 403 229L403 233Q374 253 335.50 268Q297 283 253 283Q227 283 202.50 275Q178 267 159 251.50Q140 236 128.50 211.50Q117 187 117 154Q117 94 150.50 57.50Q184 21 241 21M608 490Q574 490 545 478Q516 466 494 440.50Q472 415 458.50 375Q445 335 442 278L755 278Q755 344 740.50 385Q726 426 704 449.50Q682 473 656.50 481.50Q631 490 608 490Z"  horiz-adv-x="856" vert-adv-y="1000"  />

      
      <glyph glyph-name="unif8" unicode="&#xf8;" d="M427 445Q451 411 464 363.50Q477 316 477 256Q477 193 462.50 143Q448 93 421.50 58.50Q395 24 357.50 6Q320-12 275-12Q197-12 145 38L110-12L68-12L122 66Q99 100 86 147.50Q73 195 73 255Q73 318 87.50 367.50Q102 417 128.50 451.50Q155 486 192.50 504.50Q230 523 275 523Q352 523 405 472L440 523L482 523L427 445M112 255Q112 156 145 99L384 442Q342 487 275 487Q195 487 153.50 427.50Q112 368 112 255M275 24Q353 24 395.50 85Q438 146 438 256Q438 304 430 343.50Q422 383 405 412L167 69Q207 24 275 24Z"  horiz-adv-x="550" vert-adv-y="1000"  />

      
      <glyph glyph-name="unibf" unicode="&#xbf;" d="M294 356L294 322Q294 277 280 245Q266 213 245 187Q224 161 200 139Q176 117 155 94Q134 71 120 43.50Q106 16 106-20Q106-50 116-76.50Q126-103 146-122.50Q166-142 195-153Q224-164 262-164Q391-164 428-43L462-58Q440-127 387.50-163.50Q335-200 262-200Q215-200 179-186Q143-172 118-147.50Q93-123 80.50-90Q68-57 68-20Q68 21 82 50.50Q96 80 117 104.50Q138 129 162 150.50Q186 172 207 196.50Q228 221 242 251Q256 281 256 322L256 356L294 356M275 463Q262 463 254 472Q246 481 246 494Q246 506 254 514.50Q262 523 275 523Q287 523 295.50 514.50Q304 506 304 494Q304 481 295.50 472Q287 463 275 463Z"  horiz-adv-x="532" vert-adv-y="1000"  />

      
      <glyph glyph-name="unia1" unicode="&#xa1;" d="M143 319L157 52L157-200L119-200L119 52L133 319L143 319M138 523Q150 523 158.50 514.50Q167 506 167 494Q167 481 158.50 472Q150 463 138 463Q125 463 117 472Q109 481 109 494Q109 506 117 514.50Q125 523 138 523Z"  horiz-adv-x="276" vert-adv-y="1000"  />

      
      <glyph glyph-name="uniac" unicode="&#xac;" d="M532 176L532 427L98 427L98 463L568 463L568 176L532 176Z"  horiz-adv-x="666" vert-adv-y="1000"  />

      
      <glyph glyph-name="uni221A" unicode="&#x221A;" d="M514 712L266-105L220-105L50 222L88 222L241-70L476 712L514 712Z"  horiz-adv-x="564" vert-adv-y="1000"  />

      
      <glyph glyph-name="uni0192" unicode="&#x0192;" d="M13-182Q77-177 107.50-147.50Q138-118 138-51L138 478L56 478L56 511L138 511L138 603Q138 712 236 712Q252 712 268 707.50Q284 703 297 696L297 664Q283 670 269.50 674.50Q256 679 236 679Q201 679 187.50 660Q174 641 174 599L174 511L297 511L297 478L174 478L174-49Q174-96 162.50-126Q151-156 131-174.50Q111-193 85-201.50Q59-210 31-213L13-182Z"  horiz-adv-x="336" vert-adv-y="1000"  />

      
      <glyph glyph-name="uni2248" unicode="&#x2248;" d="M448 366Q413 366 383.50 380.50Q354 395 327 413Q300 431 273 445.50Q246 460 216 460Q180 460 159.50 435.50Q139 411 137 366L100 366Q100 390 107 413.50Q114 437 128.50 455.50Q143 474 165 485Q187 496 218 496Q253 496 282.50 481.50Q312 467 339 449Q366 431 393 416.50Q420 402 450 402Q486 402 506.50 427Q527 452 529 496L566 496Q566 472 559 448.50Q552 425 538 406.50Q524 388 501.50 377Q479 366 448 366M448 190Q413 190 383.50 204.50Q354 219 327 237Q300 255 273 269.50Q246 284 216 284Q180 284 159.50 259.50Q139 235 137 190L100 190Q100 214 107 237.50Q114 261 128.50 279.50Q143 298 165 309Q187 320 218 320Q253 320 282.50 305.50Q312 291 339 273Q366 255 393 240.50Q420 226 450 226Q486 226 506.50 251Q527 276 529 320L566 320Q566 296 559 272.50Q552 249 538 230.50Q524 212 501.50 201Q479 190 448 190Z"  horiz-adv-x="666" vert-adv-y="1000"  />

      
      <glyph glyph-name="uni2206" unicode="&#x2206;" d="M80 0L322 700L346 700L588 0L80 0M334 629L128 36L540 36L334 629Z"  horiz-adv-x="668" vert-adv-y="1000"  />

      
      <glyph glyph-name="uniab" unicode="&#xab;" d="M208 0L56 256L208 511L250 511L98 256L250 0L208 0M388 0L236 256L388 511L430 511L278 256L430 0L388 0Z"  horiz-adv-x="471" vert-adv-y="1000"  />

      
      <glyph glyph-name="unibb" unicode="&#xbb;" d="M41 0L193 256L41 511L83 511L235 256L83 0L41 0M221 0L373 256L221 511L263 511L415 256L263 0L221 0Z"  horiz-adv-x="471" vert-adv-y="1000"  />

      
      <glyph glyph-name="uni2026" unicode="&#x2026;" d="M148-12Q136-12 127.50-3.50Q119 5 119 17Q119 30 127.50 39Q136 48 148 48Q161 48 169 39Q177 30 177 17Q177 5 169-3.50Q161-12 148-12M412-12Q400-12 391.50-3.50Q383 5 383 17Q383 30 391.50 39Q400 48 412 48Q425 48 433 39Q441 30 441 17Q441 5 433-3.50Q425-12 412-12M675-12Q663-12 654.50-3.50Q646 5 646 17Q646 30 654.50 39Q663 48 675 48Q688 48 696 39Q704 30 704 17Q704 5 696-3.50Q688-12 675-12Z"  horiz-adv-x="826" vert-adv-y="1000"  />

      
      <glyph glyph-name="unic0" unicode="&#xc0;" d="M552 0L482 197L185 197L118 0L81 0L321 700L345 700L587 0L552 0M473 227L369 529Q367 535 362.50 549Q358 563 352.50 579.50Q347 596 342 612.50Q337 629 334 640Q331 629 326 612Q321 595 315 578Q309 561 304 547.50Q299 534 298 529L194 227L473 227M385 766L216 922L271 922L422 766L385 766Z"  horiz-adv-x="668" vert-adv-y="1000"  />

      
      <glyph glyph-name="unic3" unicode="&#xc3;" d="M552 0L482 197L185 197L118 0L81 0L321 700L345 700L587 0L552 0M473 227L369 529Q367 535 362.50 549Q358 563 352.50 579.50Q347 596 342 612.50Q337 629 334 640Q331 629 326 612Q321 595 315 578Q309 561 304 547.50Q299 534 298 529L194 227L473 227M413 792Q388 792 367 804.50Q346 817 326 832.50Q306 848 287 860.50Q268 873 247 873Q198 873 195 796L168 796Q168 844 189.50 875Q211 906 254 906Q279 906 300 893.50Q321 881 341 865.50Q361 850 380 837.50Q399 825 420 825Q469 825 472 902L499 902Q499 854 477.50 823Q456 792 413 792Z"  horiz-adv-x="668" vert-adv-y="1000"  />

      
      <glyph glyph-name="unid5" unicode="&#xd5;" d="M363 24Q428 24 473 53.50Q518 83 545.50 130Q573 177 585 235Q597 293 597 350Q597 412 585 471Q573 530 545.50 575.50Q518 621 473 648.50Q428 676 363 676Q298 676 253 646.50Q208 617 180.50 570Q153 523 141 465Q129 407 129 350Q129 288 141 229Q153 170 180.50 124.50Q208 79 253 51.50Q298 24 363 24M363-12Q288-12 236 20Q184 52 151.50 104Q119 156 104.50 220.50Q90 285 90 350Q90 415 104.50 479.50Q119 544 151.50 596Q184 648 236 680Q288 712 363 712Q438 712 490 680Q542 648 574.50 596Q607 544 621.50 479.50Q636 415 636 350Q636 285 621.50 220.50Q607 156 574.50 104Q542 52 490 20Q438-12 363-12M443 792Q418 792 397 804.50Q376 817 356 832.50Q336 848 317 860.50Q298 873 277 873Q228 873 225 796L198 796Q198 844 219.50 875Q241 906 284 906Q309 906 330 893.50Q351 881 371 865.50Q391 850 410 837.50Q429 825 450 825Q499 825 502 902L529 902Q529 854 507.50 823Q486 792 443 792Z"  horiz-adv-x="726" vert-adv-y="1000"  />

      
      <glyph glyph-name="uni0152" unicode="&#x0152;" d="M495 0L495 24Q477 12 444 0Q411-12 368-12Q291-12 238 20Q185 52 152 103.50Q119 155 104.50 219.50Q90 284 90 350Q90 416 105 481Q120 546 153 597Q186 648 239 680Q292 712 368 712Q411 712 443 700.50Q475 689 495 677L495 700L813 700L813 667L531 667L531 379L706 379L706 346L531 346L531 33L835 33L835 0L495 0M368 24Q410 24 442.50 38Q475 52 495 69L495 634Q469 654 435.50 665Q402 676 368 676Q301 676 255.50 646.50Q210 617 181.50 570Q153 523 140.50 465Q128 407 128 349Q128 286 140.50 227.50Q153 169 181.50 124Q210 79 255.50 51.50Q301 24 368 24Z"  horiz-adv-x="925" vert-adv-y="1000"  />

      
      <glyph glyph-name="uni0153" unicode="&#x0153;" d="M477 245Q481 129 525 76.50Q569 24 646 24Q675 24 706.50 34Q738 44 766 67L787 41Q760 18 722.50 3Q685-12 643-12Q574-12 525.50 25.50Q477 63 457 136Q437 62 388 25Q339-12 275-12Q184-12 128.50 57.50Q73 127 73 255Q73 318 87.50 367.50Q102 417 128.50 451.50Q155 486 192.50 504.50Q230 523 275 523Q340 523 389 486Q438 449 458 374Q479 449 529 486Q579 523 643 523Q684 523 718 507.50Q752 492 776.50 459.50Q801 427 814.50 376.50Q828 326 828 256L828 245L477 245M275 24Q351 24 394.50 83Q438 142 438 256Q438 368 395.50 427.50Q353 487 275 487Q195 487 153.50 427.50Q112 368 112 255Q112 146 153.50 85Q195 24 275 24M643 490Q609 490 580 478Q551 466 529 440.50Q507 415 493.50 375Q480 335 477 278L790 278Q790 344 775.50 385Q761 426 739 449.50Q717 473 691.50 481.50Q666 490 643 490Z"  horiz-adv-x="896" vert-adv-y="1000"  />

      
      <glyph glyph-name="uni2013" unicode="&#x2013;" d="M75 269L75 305L456 305L456 269L75 269Z"  horiz-adv-x="531" vert-adv-y="1000"  />

      
      <glyph glyph-name="uni2014" unicode="&#x2014;" d="M13 269L13 305L598 305L598 269L13 269Z"  horiz-adv-x="611" vert-adv-y="1000"  />

      
      <glyph glyph-name="uni201C" unicode="&#x201C;" d="M135 709Q121 689 111.50 657.50Q102 626 102 598Q102 592 102.50 589Q103 586 103 585Q117 585 126 577Q135 569 135 556Q135 542 126.50 533.50Q118 525 106 525Q92 525 82.50 535Q73 545 73 571Q73 592 78 613.50Q83 635 90.50 653.50Q98 672 107.50 687.50Q117 703 126 712L135 709M311 709Q297 689 287.50 657.50Q278 626 278 598Q278 592 278.50 589Q279 586 279 585Q293 585 302 577Q311 569 311 556Q311 542 302.50 533.50Q294 525 282 525Q268 525 258.50 535Q249 545 249 571Q249 592 254 613.50Q259 635 266.50 653.50Q274 672 283.50 687.50Q293 703 302 712L311 709Z"  horiz-adv-x="388" vert-adv-y="1000"  />

      
      <glyph glyph-name="uni201D" unicode="&#x201D;" d="M253 528Q267 548 276.50 579.50Q286 611 286 639Q286 645 285.50 648Q285 651 285 652Q271 652 262 660Q253 668 253 681Q253 695 261.50 703.50Q270 712 282 712Q296 712 305.50 702Q315 692 315 666Q315 645 310 623.50Q305 602 297.50 583.50Q290 565 280.50 549.50Q271 534 262 525L253 528M77 528Q91 548 100.50 579.50Q110 611 110 639Q110 645 109.50 648Q109 651 109 652Q95 652 86 660Q77 668 77 681Q77 695 85.50 703.50Q94 712 106 712Q120 712 129.50 702Q139 692 139 666Q139 645 134 623.50Q129 602 121.50 583.50Q114 565 104.50 549.50Q95 534 86 525L77 528Z"  horiz-adv-x="388" vert-adv-y="1000"  />

      
      <glyph glyph-name="uni2018" unicode="&#x2018;" d="M135 709Q121 689 111.50 657.50Q102 626 102 598Q102 592 102.50 589Q103 586 103 585Q117 585 126 577Q135 569 135 556Q135 542 126.50 533.50Q118 525 106 525Q92 525 82.50 535Q73 545 73 571Q73 592 78 613.50Q83 635 90.50 653.50Q98 672 107.50 687.50Q117 703 126 712L135 709Z"  horiz-adv-x="212" vert-adv-y="1000"  />

      
      <glyph glyph-name="uni2019" unicode="&#x2019;" d="M77 528Q91 548 100.50 579.50Q110 611 110 639Q110 645 109.50 648Q109 651 109 652Q95 652 86 660Q77 668 77 681Q77 695 85.50 703.50Q94 712 106 712Q120 712 129.50 702Q139 692 139 666Q139 645 134 623.50Q129 602 121.50 583.50Q114 565 104.50 549.50Q95 534 86 525L77 528Z"  horiz-adv-x="212" vert-adv-y="1000"  />

      
      <glyph glyph-name="unif7" unicode="&#xf7;" d="M98 325L98 359L568 359L568 325L98 325M330 520Q318 520 309.50 528.50Q301 537 301 549Q301 562 309.50 571Q318 580 330 580Q343 580 351 571Q359 562 359 549Q359 537 351 528.50Q343 520 330 520M330 105Q318 105 309.50 113.50Q301 122 301 134Q301 147 309.50 156Q318 165 330 165Q343 165 351 156Q359 147 359 134Q359 122 351 113.50Q343 105 330 105Z"  horiz-adv-x="666" vert-adv-y="1000"  />

      
      <glyph glyph-name="uni25CA" unicode="&#x25CA;" d="M296-12L94 350L296 712L332 712L534 350L332-12L296-12M314 680L131 350L314 20L497 350L314 680Z"  horiz-adv-x="626" vert-adv-y="1000"  />

      
      <glyph glyph-name="uniff" unicode="&#xff;" d="M237 12L53 511L89 511L255 59L421 511L457 511L197-194L161-194L237 12M169 606Q157 606 148.50 614.50Q140 623 140 635Q140 648 148.50 657Q157 666 169 666Q182 666 190 657Q198 648 198 635Q198 623 190 614.50Q182 606 169 606M335 606Q323 606 314.50 614.50Q306 623 306 635Q306 648 314.50 657Q323 666 335 666Q348 666 356 657Q364 648 364 635Q364 623 356 614.50Q348 606 335 606Z"  horiz-adv-x="515" vert-adv-y="1000"  />

      
      <glyph glyph-name="uni0178" unicode="&#x0178;" d="M287 0L287 277L59 700L98 700L305 314L512 700L551 700L323 277L323 0L287 0M222 796Q210 796 201.50 804.50Q193 813 193 825Q193 838 201.50 847Q210 856 222 856Q235 856 243 847Q251 838 251 825Q251 813 243 804.50Q235 796 222 796M388 796Q376 796 367.50 804.50Q359 813 359 825Q359 838 367.50 847Q376 856 388 856Q401 856 409 847Q417 838 417 825Q417 813 409 804.50Q401 796 388 796Z"  horiz-adv-x="610" vert-adv-y="1000"  />

      
      <glyph glyph-name="uni2044" unicode="&#x2044;" d="M-95-12L383 712L426 712L-52-12L-95-12Z"  horiz-adv-x="331" vert-adv-y="1000"  />

      
      <glyph glyph-name="uni20AC" unicode="&#x20AC;" d="M362-12Q304-12 262.50 9.50Q221 31 193 67Q165 103 149 149Q133 195 126 244L63 244L77 277L121 277Q119 293 119 308.50Q119 324 119 340Q119 357 120 374Q121 391 123 409L63 409L77 442L127 442Q135 493 153 541.50Q171 590 200.50 628Q230 666 272 689Q314 712 371 712Q412 712 450 702Q488 692 518 672L504 639Q478 656 443.50 666Q409 676 371 676Q322 676 286.50 656Q251 636 226.50 603Q202 570 187.50 528Q173 486 166 442L422 442L408 409L162 409Q160 391 159 374Q158 357 158 340Q158 308 161 277L353 277L340 244L165 244Q171 202 185 162Q199 122 222.50 91.50Q246 61 280.50 42.50Q315 24 362 24Q410 24 446.50 43.50Q483 63 509 92L538 72Q526 56 508.50 41Q491 26 469 14Q447 2 420-5Q393-12 362-12Z"  horiz-adv-x="596" vert-adv-y="1000"  />

      
      <glyph glyph-name="uni2039" unicode="&#x2039;" d="M208 0L56 256L208 511L250 511L98 256L250 0L208 0Z"  horiz-adv-x="291" vert-adv-y="1000"  />

      
      <glyph glyph-name="uni203A" unicode="&#x203A;" d="M41 0L193 256L41 511L83 511L235 256L83 0L41 0Z"  horiz-adv-x="291" vert-adv-y="1000"  />

      
      <glyph glyph-name="uniFB01" unicode="&#xFB01;" d="M161 478L161 0L125 0L125 478L43 478L43 511L125 511L125 603Q125 712 223 712Q239 712 255 707.50Q271 703 284 696L284 664Q270 670 256.50 674.50Q243 679 223 679Q188 679 174.50 660Q161 641 161 599L161 511L284 511L284 478L161 478M406 0L406 511L442 511L442 0L406 0M424 633Q412 633 403.50 641.50Q395 650 395 662Q395 675 403.50 684Q412 693 424 693Q437 693 445 684Q453 675 453 662Q453 650 445 641.50Q437 633 424 633Z"  horiz-adv-x="553" vert-adv-y="1000"  />

      
      <glyph glyph-name="uniFB02" unicode="&#xFB02;" d="M161 478L161 0L125 0L125 478L43 478L43 511L125 511L125 603Q125 712 223 712Q239 712 255 707.50Q271 703 284 696L284 664Q270 670 256.50 674.50Q243 679 223 679Q188 679 174.50 660Q161 641 161 599L161 511L284 511L284 478L161 478M403 0L403 704L439 722L439 0L403 0Z"  horiz-adv-x="547" vert-adv-y="1000"  />

      
      <glyph glyph-name="uni2021" unicode="&#x2021;" d="M433 116L468 116L468 82L433 82L293 91L301-16L301-141L265-141L265-16L273 91L133 82L98 82L98 116L133 116L273 107L265 233L265 338L273 464L133 455L98 455L98 489L133 489L273 480L265 587L265 712L301 712L301 587L293 480L433 489L468 489L468 455L433 455L293 464L301 338L301 233L293 107L433 116Z"  horiz-adv-x="566" vert-adv-y="1000"  />

      
      <glyph glyph-name="unib7" unicode="&#xb7;" d="M106 320Q94 320 85.50 328.50Q77 337 77 349Q77 362 85.50 371Q94 380 106 380Q119 380 127 371Q135 362 135 349Q135 337 127 328.50Q119 320 106 320Z"  horiz-adv-x="212" vert-adv-y="1000"  />

      
      <glyph glyph-name="uni201A" unicode="&#x201A;" d="M77-138Q91-118 100.50-86.50Q110-55 110-27Q110-23 109.50-20Q109-17 109-14Q95-14 86-6Q77 2 77 15Q77 29 85.50 37.50Q94 46 106 46Q120 46 129.50 36Q139 26 139 0Q139-21 134-42.50Q129-64 121.50-82.50Q114-101 104.50-116.50Q95-132 86-141L77-138Z"  horiz-adv-x="212" vert-adv-y="1000"  />

      
      <glyph glyph-name="uni201E" unicode="&#x201E;" d="M253-138Q267-118 276.50-86.50Q286-55 286-27Q286-22 285.50-18.50Q285-15 285-14Q271-14 262-6Q253 2 253 15Q253 29 261.50 37.50Q270 46 282 46Q296 46 305.50 36Q315 26 315 0Q315-21 310-42.50Q305-64 297.50-82.50Q290-101 280.50-116.50Q271-132 262-141L253-138M77-138Q91-118 100.50-86.50Q110-55 110-27Q110-22 109.50-18.50Q109-15 109-14Q95-14 86-6Q77 2 77 15Q77 29 85.50 37.50Q94 46 106 46Q120 46 129.50 36Q139 26 139 0Q139-21 134-42.50Q129-64 121.50-82.50Q114-101 104.50-116.50Q95-132 86-141L77-138Z"  horiz-adv-x="388" vert-adv-y="1000"  />

      
      <glyph glyph-name="uni2030" unicode="&#x2030;" d="M225 356Q183 356 154 372Q125 388 107 413.50Q89 439 81 470.50Q73 502 73 534Q73 563 80.50 594.50Q88 626 106 652Q124 678 153 695Q182 712 225 712Q268 712 297 695Q326 678 344 652Q362 626 369.50 594.50Q377 563 377 534Q377 502 369 470.50Q361 439 343 413.50Q325 388 296 372Q267 356 225 356M225 392Q256 392 278 404.50Q300 417 313.50 437.50Q327 458 333 483Q339 508 339 534Q339 557 333 582Q327 607 313.50 628Q300 649 278.50 662.50Q257 676 225 676Q193 676 171.50 662.50Q150 649 136.50 628Q123 607 117 582Q111 557 111 534Q111 508 117 483Q123 458 136.50 437.50Q150 417 172 404.50Q194 392 225 392M230-12L187-12L665 712L708 712L230-12M670-12Q628-12 599 4Q570 20 552 45.50Q534 71 526 102.50Q518 134 518 166Q518 195 525.50 226.50Q533 258 551 284Q569 310 598 327Q627 344 670 344Q713 344 742 327Q771 310 789 284Q807 258 814.50 226.50Q822 195 822 166Q822 134 814 102.50Q806 71 788 45.50Q770 20 741 4Q712-12 670-12M670 24Q701 24 723 36.50Q745 49 758.50 69.50Q772 90 778 115Q784 140 784 166Q784 189 778 214Q772 239 758.50 260Q745 281 723.50 294.50Q702 308 670 308Q638 308 616.50 294.50Q595 281 581.50 260Q568 239 562 214Q556 189 556 166Q556 140 562 115Q568 90 581.50 69.50Q595 49 617 36.50Q639 24 670 24M1062-12Q1020-12 991 4Q962 20 944 45.50Q926 71 918 102.50Q910 134 910 166Q910 195 917.50 226.50Q925 258 943 284Q961 310 990 327Q1019 344 1062 344Q1105 344 1134 327Q1163 310 1181 284Q1199 258 1206.50 226.50Q1214 195 1214 166Q1214 134 1206 102.50Q1198 71 1180 45.50Q1162 20 1133 4Q1104-12 1062-12M1062 24Q1093 24 1115 36.50Q1137 49 1150.50 69.50Q1164 90 1170 115Q1176 140 1176 166Q1176 189 1170 214Q1164 239 1150.50 260Q1137 281 1115.50 294.50Q1094 308 1062 308Q1030 308 1008.50 294.50Q987 281 973.50 260Q960 239 954 214Q948 189 948 166Q948 140 954 115Q960 90 973.50 69.50Q987 49 1009 36.50Q1031 24 1062 24Z"  horiz-adv-x="1277" vert-adv-y="1000"  />

      
      </font>
</defs>
</svg>
